<?xml version="1.0" standalone="no"?>
<!DOCTYPE svg PUBLIC "-//W3C//DTD SVG 1.0//EN" "http://www.w3.org/TR/2001/REC-SVG-20010904/DTD/svg10.dtd">
<svg xmlns="http://www.w3.org/2000/svg" xmlns:xlink="http://www.w3.org/1999/xlink" id="body_1" width="405" height="405">

<g transform="matrix(0.59911245 0 0 0.59911245 0 0)">
    <path transform="matrix(1 0 0 1 -262 -112)"  d="M938 450C 938.0418 486.95975 932.0115 523.6753 920.15 558.68C 919.47 560.68 918.7733 562.67334 918.06 564.66C 905.499 599.39667 887.33545 631.8426 864.29 660.70996C 857.41003 669.33997 850.12 677.61334 842.42 685.52997C 795.1936 725.5791 737.8253 751.8098 676.64 761.32996L676.64 761.32996L676.63 761.32996C 668.83 762.54 660.95337 763.4833 653 764.16C 627.36334 780.04663 609.69666 787.99335 600 788C 508.89642 788.11865 421.6277 751.34033 358.09 686.05C 355.88 683.79 353.70334 681.49664 351.56 679.17C 335.31897 657.2286 321.80658 633.3938 311.32 608.19C 306.84802 597.4558 302.94254 586.4937 299.62 575.35C 299.38 574.56 299.15 573.77 298.91998 572.98C 298.41998 571.28 297.93665 569.57 297.46997 567.85C 278.5421 531.0652 266.52 491.12125 262 450C 262 263.33002 413.33002 112 600 112C 786.67 112 938 263.33 938 450z" stroke="none" fill="#F2F2F2" fill-rule="nonzero" />
    <path transform="matrix(1 0 0 1 -262 -112)"  d="M405.34787 314.03192C 404.2886 320.46365 406.13257 327.0342 410.3836 331.97562C 414.63467 336.91702 420.8561 339.72168 427.37387 339.63492L427.37387 339.63492L481.3282 496.62762L515.755 472.96762L449.29636 315.7305C 448.4052 304.54517 439.28894 295.79407 428.07654 295.36072C 416.8641 294.92737 407.0996 302.94873 405.34784 314.03192L405.34784 314.03192L405.34787 314.03192z" stroke="none" fill="#A0616A" fill-rule="nonzero" />
    <path transform="matrix(1 0 0 1 -262 -112)"  d="M686.9553 367.15C 662.9953 394.41 603.91534 442.45 555.2453 475.53C 544.7253 482.68 534.6853 489.12 525.5953 494.51C 519.45526 498.15002 513.7453 501.30002 508.6053 503.87C 501.6313 507.3441 493.52496 507.7546 486.2357 505.00287C 478.9464 502.25113 473.13367 496.58606 470.19528 489.37L470.19528 489.37L436.49527 407.84L448.15527 400.10995L476.90527 381.03995L483.43527 376.71994L510.39526 440.92993L538.82526 418.10992L556.4753 403.9399L636.9353 339.3699L643.8753 337.3099L660.0653 353.1099L671.51526 364.2899L682.2853 366.15988C 683.8953 366.43994 685.4553 366.77 686.9553 367.15z" stroke="none" fill="#003153" fill-rule="nonzero" />
    <path transform="matrix(1 0 0 1 -262 -112)"  d="M901.92 591.16223C 903.58997 593.2822 905.32 595.3922 907.05 597.5122C 901.0908 609.7486 894.3917 621.61053 886.99 633.0322C 886.44 632.64233 885.89 632.2523 885.33997 631.86224C 885.253 631.8148 885.16943 631.76135 885.08997 631.7023C 883.04 630.24225 880.9799 628.80225 878.93 627.3423L878.93 627.3423L878.93 627.3323C 877.2389 621.5771 876.2945 615.62836 876.12 609.63226C 878.2859 609.13556 879.9102 607.3377 880.18524 605.1327C 880.4603 602.9276 879.32745 600.7858 877.35 599.7722C 877.07996 599.30225 876.88995 598.9622 876.62 598.48224C 876.63 598.36224 876.65 598.23224 876.66 598.11224C 878.23 585.62225 894.15 581.26227 901.92 591.16223z" stroke="none" fill="#FFFFFF" fill-rule="nonzero" />
    <path transform="matrix(1 0 0 1 -262 -112)"  d="M919.87 548.36224C 921.07 551.66223 922.1633 554.9989 923.15 558.37225C 921.5234 552.53394 919.5703 546.7915 917.30005 541.17224C 915.44006 536.56226 913.3801 532.04895 911.12006 527.63226C 898.8309 503.63846 881.02295 482.9037 859.16003 467.13226C 850.1248 465.0426 841.9474 460.2332 835.73004 453.35226C 833.4875 450.87982 831.61163 448.09808 830.16003 445.09225C 831.08 444.96225 832.00006 444.78226 832.9 444.59225C 833.18005 444.53226 833.47003 444.46225 833.75 444.40225L833.75 444.40225L833.86 444.38226C 835.8697 443.91623 837.4191 442.3146 837.8183 440.29056C 838.2175 438.26648 837.3922 436.1965 835.70996 435.00232C 835.19995 434.63226 834.67993 434.2723 834.17 433.91232C 833.38995 433.34232 832.6 432.80234 831.81 432.2423C 831.72675 432.1904 831.6466 432.13364 831.57 432.0723C 830.67 431.43228 829.77 430.8123 828.88 430.1623C 829.57043 427.93408 830.7646 425.89474 832.37 424.2023C 837.96 418.4323 847.94 418.56235 854.46 423.2623C 860.99005 427.9623 864.27 436.1923 864.69 444.2123C 865.06 451.0823 863.58 457.88232 861.63 464.5123C 862.12 464.87228 862.63 465.2123 863.12 465.5823C 872.12286 472.25458 880.4494 479.79404 887.98 488.09232C 883.63 477.7723 882.05 464.31232 883.18 455.04233C 884.47 444.48233 889.6 434.45233 893.8 424.46234C 898.83 412.46234 915.99 412.30234 920.83 424.38235C 920.88 424.5024 920.93 424.61237 920.97003 424.73236C 920.16003 425.54236 919.38007 426.38235 918.63 427.25235C 916.70276 429.49606 916.3498 432.6925 917.74115 435.3026C 919.13245 437.91275 921.9829 439.4016 924.92 439.05234L924.92 439.05234L925.07 439.03235C 925.6936 442.5973 926.048 446.20422 926.13 449.82236C 926.38086 470.28632 918.0891 489.92847 903.25 504.02237C 902.77 504.47238 902.3 504.91238 901.81 505.34238C 906.4426 511.93002 910.6029 518.83716 914.26 526.0124C 916.6262 533.32886 918.50037 540.79565 919.87 548.36224z" stroke="none" fill="#FFFFFF" fill-rule="nonzero" />
    <path transform="matrix(1 0 0 1 -262 -112)"  d="M727.18536 454.54993L724.16534 661.95996L480.20532 654.95996L519.16534 568.95996C 518.8853 566.19995 536.2653 546.82996 536.16534 543.95996C 535.86536 535.55 542.1453 527.75995 543.16534 518.95996C 545.24536 500.80997 533.3353 432.26996 538.8253 418.10995C 541.164 411.7869 544.16046 405.727 547.7653 400.03C 550.8853 395.31 554.0853 392.13 557.1453 390.98L557.1453 390.98L566.16534 369.96002L574.16534 357.96002L636.93536 339.37003L643.87537 337.31003L660.06537 353.11002L671.5153 364.29L682.28534 366.16C 683.8953 366.44 685.4553 366.77 686.9553 367.15C 694.1797 368.8159 700.913 372.15176 706.6153 376.88998C 725.41534 392.85992 727.60535 422.9 727.18536 454.54993z" stroke="none" fill="#003153" fill-rule="nonzero" />
    <path transform="matrix(1 0 0 1 -262 -112)"  d="M867.29 660.4022C 860.41003 669.0322 853.12 677.30554 845.42 685.2222L845.42 685.2222L819.04 685.24225L677.17 685.4022L651.63 685.43225L634.65 685.4523L609.39 685.4723L589.96 685.4923L554.07 685.5323L532.9 685.5623L488.32 685.6023L467.04 685.6323L408.07 685.6923L371.03 685.7323L361.09 685.7423C 358.88 683.4823 356.70334 681.18896 354.56 678.8623L354.56 678.8623L375.13998 678.8423L389.15997 678.8323L421.61996 678.7923L484.25995 678.7323L505.42996 678.7123L513.99 678.7023L514.02 678.7023L520.74 678.69226L523.75 678.68225L531.46 678.67224L534.72003 678.67224L557.58 678.6522L606.89 678.5922L628.59 678.5722L649.37006 678.5522L668.85004 678.53217L696.80005 678.50214L846.0801 678.3521L867.29 660.4022z" stroke="none" fill="#CCCCCC" fill-rule="nonzero" />
    <path transform="matrix(1 0 0 1 -262 -112)"  d="M529.7657 348.972L529.7114 348.97717C 523.704 349.53616 518.38086 345.11935 517.8219 339.11194L517.8219 339.11194L512.1351 278.41245C 511.10562 267.5385 512.2732 256.56857 515.56836 246.15489C 522.027 225.83035 536.07983 208.78223 554.79816 198.56339C 564.4633 193.30087 575.09393 190.04976 586.0493 189.006C 630.86884 184.736 647.2478 194.07059 674.93384 262.42737C 702.6199 330.78415 680.62933 323.21936 680.62933 323.21936C 680.76807 324.6822 680.6107 326.158 680.1667 327.55875C 679.2953 330.29163 677.4017 332.58218 674.88135 333.95187C 673.5881 334.6531 672.167 335.08725 670.70264 335.22852C 617.71625 348.697 564.251 362.87424 529.75665 348.9728L529.75665 348.9728L529.7657 348.972z" stroke="none" fill="#2F2E41" fill-rule="nonzero" />
    <path transform="matrix(1 0 0 1 -262 -112)"  d="M628.3874 246.52081C 641.98883 266.6453 642.13824 292.9789 628.766 313.25644C 615.39374 333.53394 591.1295 343.7677 567.2748 339.1912C 551.6771 336.2495 537.9058 327.18716 529.03326 314.026C 515.46094 293.90903 515.31976 267.60318 528.6755 247.34169C 542.0312 227.0802 566.2623 216.8398 590.10065 221.38261C 605.7109 224.30695 619.49976 233.36118 628.38763 246.52307L628.38763 246.52307L628.3874 246.52081z" stroke="none" fill="#9E616A" fill-rule="nonzero" />
    <path transform="matrix(1 0 0 1 -262 -112)"  d="M493.34592 285.156C 492.53238 276.55594 493.456 267.88007 496.06186 259.64407C 496.66608 239.49689 502.51147 221.24835 527.0845 222.01431C 534.6804 217.88217 543.02985 215.32011 551.6361 214.48056L551.6361 214.48056L563.7793 213.28143C 563.9157 213.26787 564.0521 213.25473 564.18854 213.24203C 581.1794 211.6607 598.10254 216.89374 611.23505 227.78995C 624.36755 238.68614 632.6337 254.35295 634.215 271.3438L634.215 271.3438L634.3289 272.5596L608.6378 275.07123L597.5808 251.40944L598.12634 276.10382L584.85736 277.40613L579.2813 265.4682L579.5535 277.91898C 559.8521 295.27048 529.97723 296.17996 493.47134 286.373L493.47134 286.373L493.34592 285.156z" stroke="none" fill="#2F2E41" fill-rule="nonzero" />
    <path transform="matrix(1 0 0 1 -262 -112)"  d="M575.525 342.75525C 575.30646 344.75522 575.6535 346.7764 576.5267 348.58893C 576.9666 349.51727 577.5345 350.37936 578.2138 351.15002C 578.7949 351.80646 579.4516 352.39185 580.1702 352.894C 582.2986 354.37582 584.88525 355.05072 587.4662 354.79764C 587.62695 354.78107 587.7875 354.76147 587.94763 354.7389C 588.10785 354.7163 588.2677 354.68997 588.4272 354.65988C 588.5883 354.63113 588.7483 354.59796 588.9071 354.5603C 589.0659 354.52267 589.2252 354.48196 589.3849 354.43817L589.3849 354.43817L598.3514 351.92566L608.4005 323.90634L610.704 348.49292L651.4768 337.14124L641.7018 232.80624L572.2072 239.65387L574.11304 241.48909C 580.44574 247.65279 584.955 255.44414 587.1447 264.0056C 589.3182 272.68134 589.989 281.66534 589.1281 290.56766C 588.324 299.56937 586.65735 308.47296 584.1511 317.15607C 581.9695 324.845 579.34686 332.40143 576.29596 339.78864C 575.90155 340.7366 575.642 341.73517 575.525 342.75525z" stroke="none" fill="#2F2E41" fill-rule="nonzero" />
    <path transform="matrix(1 0 0 1 -262 -112)"  d="M584.79175 671.7091C 583.5969 671.708 582.41724 671.44135 581.3382 670.92834L581.3382 670.92834L388.8184 675.83997C 385.7941 674.4075 383.96588 671.2589 384.22098 667.92224C 384.47604 664.5856 386.7616 661.75146 389.96848 660.7952L389.96848 660.7952L515.9203 623.2402C 517.2247 622.8515 518.6061 622.79865 519.9363 623.0865L519.9363 623.0865L714.7624 646.8327C 718.3054 647.5986 720.9047 650.63043 721.1205 654.2489C 721.3362 657.8674 719.11554 661.1866 715.6886 662.36804L715.6886 662.36804L587.4299 671.2646C 586.5813 671.5581 585.6897 671.7083 584.79175 671.7091z" stroke="none" fill="#3F3D56" fill-rule="nonzero" />
    <path transform="matrix(1 0 0 1 -262 -112)"  d="M591.8725 658.30725C 591.0032 658.3076 590.14825 658.08514 589.38934 657.661L589.38934 657.661L433.0352 664.9656C 431.21814 663.94653 430.20978 661.91943 430.49316 659.8556C 430.77658 657.7917 432.294 656.1114 434.31848 655.6198L434.31848 655.6198L490.92212 641.8815C 491.80554 641.6678 492.7301 641.6949 493.5995 641.95996L493.5995 641.95996L638.953 641.78534C 641.0771 642.4354 642.53033 644.3928 642.53815 646.61414C 642.54596 648.8355 641.10645 650.80304 638.987 651.4681L638.987 651.4681L593.38464 658.0765C 592.8952 658.2296 592.3853 658.30743 591.8725 658.30725z" stroke="none" fill="#2F2E41" fill-rule="nonzero" />
    <path transform="matrix(1 0 0 1 -262 -112)"  d="M575.4148 649.97363C 580.89325 653.5057 587.6548 654.42975 593.88007 652.4971C 600.10535 650.5644 605.1548 645.97363 607.6698 639.95996L607.6698 639.95996L773.16534 652.95996L765.16534 611.95996L594.4679 610.33356C 583.8523 606.6984 572.1955 611.57764 567.33453 621.69086C 562.47363 631.804 565.94495 643.95465 575.4148 649.97363z" stroke="none" fill="#A0616A" fill-rule="nonzero" />
    <path transform="matrix(1 0 0 1 -262 -112)"  d="M673.16534 382.96C 673.16534 382.96 698.16534 362.96 728.16534 398.96C 748.397 423.23795 787.4247 570.00433 790.6605 630.82245C 791.0741 638.60223 788.22565 646.2023 782.80054 651.79364C 777.3754 657.3851 769.86487 660.4616 762.0762 660.28296L762.0762 660.28296L673.8653 658.74774L664.0014 603.2977L733.6449 604.1224L673.16534 382.96z" stroke="none" fill="#003153" fill-rule="nonzero" />
    <path transform="matrix(1 0 0 1 -262 -112)"  d="M574.084 671.7315C 571.05774 671.72906 568.0625 671.1226 565.27374 669.9477L565.27374 669.9477L386.83173 674.01917C 377.13687 669.9761 371.488 659.8038 373.18073 649.4368L373.18073 649.4368L366.5502 492.72546C 368.37308 481.1215 378.76718 472.83853 390.4853 473.65182L390.4853 473.65182L556.14844 480.52283C 562.5794 480.94443 568.5294 484.0752 572.51904 489.13666C 576.50867 494.19812 578.163 500.71484 577.07086 507.0664L577.07086 507.0664L596.4803 652.835C 594.59607 663.7379 585.1484 671.7092 574.084 671.7315z" stroke="none" fill="#3F3D56" fill-rule="nonzero" />
    <path transform="matrix(1 0 0 1 -262 -112)"  d="M438.58533 205.16992L364.11533 204.95992C 359.95917 204.955 356.58252 208.31377 356.56534 212.46991L356.56534 212.46991L356.29535 311.0799C 356.28656 315.23215 359.6431 318.60663 363.79535 318.6199L363.79535 318.6199L405.10535 318.7399L438.27533 318.8299C 442.43103 318.8375 445.8064 315.47556 445.81534 311.3199L445.81534 311.3199L445.83533 305.4899L446.09534 212.71991C 446.10373 208.5623 442.74292 205.18361 438.58533 205.16992z" stroke="none" fill="#E6E6E6" fill-rule="nonzero" />
    <path transform="matrix(1 0 0 1 -262 -112)"  d="M433.33533 211.05994L369.33533 210.87994C 365.44424 210.87503 362.2825 214.01889 362.26532 217.90994L362.26532 217.90994L362.08533 281.30994C 362.05927 298.64584 376.06955 312.73218 393.40533 312.79993L393.40533 312.79993L405.56534 312.82993L433.05533 312.9099C 436.94788 312.91837 440.11172 309.77243 440.12534 305.8799L440.12534 305.8799L440.1453 299.4999L440.3653 218.12991C 440.37375 214.23738 437.22784 211.07356 433.33533 211.05994z" stroke="none" fill="#FFFFFF" fill-rule="nonzero" />
    <path transform="matrix(1 0 0 1 -262 -112)"  d="M426.14532 254.37994L376.24533 254.37994C 375.17404 254.37802 374.18332 254.94844 373.6471 255.87589C 373.1109 256.80334 373.1109 257.94653 373.6471 258.874C 374.18332 259.80142 375.17404 260.37186 376.24533 260.36993L376.24533 260.36993L426.14532 260.36993C 427.7994 260.36993 429.14032 259.02902 429.14032 257.37494C 429.14032 255.72084 427.7994 254.37994 426.14532 254.37993L426.14532 254.37993L426.14532 254.37994z" stroke="none" fill="#003153" fill-rule="nonzero" />
    <path transform="matrix(1 0 0 1 -262 -112)"  d="M387.21533 237.96L376.24533 237.96C 375.17532 237.96002 374.18658 238.53085 373.65158 239.45752C 373.11658 240.38417 373.11658 241.52586 373.65158 242.45251C 374.18658 243.37918 375.17532 243.95001 376.24533 243.95001L376.24533 243.95001L387.21533 243.95001C 388.28534 243.95001 389.27408 243.37918 389.80908 242.45251C 390.3441 241.52586 390.3441 240.38417 389.80908 239.45752C 389.27408 238.53085 388.28534 237.96002 387.21533 237.96z" stroke="none" fill="#003153" fill-rule="nonzero" />
    <path transform="matrix(1 0 0 1 -262 -112)"  d="M426.14532 280.71L376.24533 280.71C 375.17404 280.70807 374.18332 281.2785 373.6471 282.20593C 373.1109 283.1334 373.1109 284.27658 373.6471 285.20404C 374.18332 286.13147 375.17404 286.7019 376.24533 286.69998L376.24533 286.69998L426.14532 286.69998C 427.79733 286.69702 429.13495 285.357 429.13495 283.705C 429.13495 282.05298 427.79733 280.71295 426.14532 280.71z" stroke="none" fill="#003153" fill-rule="nonzero" />
    <path transform="matrix(1 0 0 1 -262 -112)"  d="M426.14532 267.54993L376.24533 267.54993C 375.1771 267.54993 374.19003 268.1198 373.6559 269.04492C 373.1218 269.97003 373.1218 271.1098 373.6559 272.0349C 374.19003 272.96002 375.1771 273.5299 376.24533 273.52994L376.24533 273.52994L426.14532 273.52994C 427.79666 273.5299 429.1353 272.19125 429.1353 270.53992C 429.1353 268.88858 427.79666 267.54993 426.14532 267.54993z" stroke="none" fill="#003153" fill-rule="nonzero" />
    <path transform="matrix(1 0 0 1 -262 -112)"  d="M416.449 248.55038C 409.28336 248.55038 402.8233 244.23392 400.08115 237.61375C 397.339 230.99359 398.85474 223.37344 403.92157 218.30658C 408.98843 213.23972 416.60858 211.72398 423.22876 214.46614C 429.8489 217.2083 434.16537 223.66833 434.1654 230.83397C 434.15427 240.61385 426.22888 248.53925 416.449 248.55038zM416.449 214.34874C 409.78134 214.34871 403.7702 218.36519 401.2186 224.5253C 398.66696 230.68541 400.07736 237.77602 404.79208 242.49078C 409.50684 247.20554 416.5974 248.61597 422.75754 246.06438C 428.91766 243.51279 432.93417 237.50166 432.93417 230.834C 432.92383 221.73376 425.54922 214.35913 416.449 214.34875z" stroke="none" fill="#003153" fill-rule="nonzero" />
    <path transform="matrix(1 0 0 1 -262 -112)"  d="M423.8894 237.6962C 422.6657 231.37827 420.117 225.39139 416.41122 220.13008C 416.2412 219.8527 415.93924 219.68364 415.61392 219.68364C 415.2886 219.68364 414.98663 219.8527 414.81662 220.13008C 411.5892 225.77509 409.52625 232.00984 408.74973 238.46579C 408.6062 239.64279 410.45422 239.63245 410.5965 238.46579C 410.856 236.37358 411.2605 234.30194 411.80713 232.2658C 411.87787 232.25185 411.94702 232.23068 412.01343 232.20264C 414.4691 230.96973 417.2433 230.51797 419.96323 230.90805C 419.9869 230.91158 420.00974 230.90643 420.03342 230.90874C 420.93155 233.2712 421.62582 235.70625 422.1086 238.18716C 422.33386 239.35283 424.11417 238.85928 423.8894 237.6962zM412.47186 230.001C 413.31952 227.3713 414.39862 224.82198 415.69662 222.38289C 417.07043 224.48181 418.2633 226.6937 419.26242 228.9947C 416.9522 228.82098 414.63235 229.16476 412.47186 230.001z" stroke="none" fill="#003153" fill-rule="nonzero" />
</g>
</svg>