<?xml version="1.0" standalone="no"?>
<!DOCTYPE svg PUBLIC "-//W3C//DTD SVG 1.0//EN" "http://www.w3.org/TR/2001/REC-SVG-20010904/DTD/svg10.dtd">
<svg xmlns="http://www.w3.org/2000/svg" xmlns:xlink="http://www.w3.org/1999/xlink" id="body_1" width="513" height="336">

<g transform="matrix(0.59902966 0 0 0.59902966 -0 0.2896797)">
	<g transform="matrix(1 0 0 1 -171.808 -222.403)">
		<g transform="matrix(1 0 0 1 -222.485 -67.725)">
            <path transform="matrix(1 0 0 1 805.32 327.084)"  d="M0 0L94.644 0L94.644 1.803L0 1.803z" stroke="none" fill="#CCCCCC" fill-rule="nonzero" />
            <path transform="matrix(1 0 0 1 431.249 327.084)"  d="M0 0L300.158 0L300.158 1.803L0 1.803z" stroke="none" fill="#CCCCCC" fill-rule="nonzero" />
            <path transform="matrix(1 0 0 1 394.293 291.029)"  d="M73.912 36.956C 73.912 47.16112 70.30395 55.871735 63.087837 63.087837C 55.871735 70.30395 47.16112 73.912 36.956 73.912C 26.750883 73.912 18.04027 70.30395 10.824163 63.087837C 3.6080546 55.871735 0 47.16112 0 36.956C 0 26.750883 3.6080546 18.04027 10.824163 10.824163C 18.04027 3.6080546 26.750883 0 36.956 0C 47.16112 0 55.871735 3.6080546 63.087837 10.824163C 70.30395 18.04027 73.912 26.750883 73.912 36.956C 73.912 37.386047 73.9045 37.815964 73.889496 38.245747" stroke="none" fill="#003153" fill-rule="nonzero" />
            <path transform="matrix(1 0 0 1 562.85 291.029)"  d="M73.912 36.956C 73.912 47.16112 70.30395 55.871735 63.087837 63.087837C 55.871735 70.30395 47.16112 73.912 36.956 73.912C 26.750883 73.912 18.04027 70.30395 10.824163 63.087837C 3.6080546 55.871735 0 47.16112 0 36.956C 0 26.750883 3.6080546 18.04027 10.824163 10.824163C 18.04027 3.6080546 26.750883 0 36.956 0C 47.16112 0 55.871735 3.6080546 63.087837 10.824163C 70.30395 18.04027 73.912 26.750883 73.912 36.956C 73.912 37.386047 73.9045 37.815964 73.889496 38.245747" stroke="none" fill="#3F3D56" fill-rule="nonzero" />
            <path transform="matrix(1 0 0 1 -104.641 106.5)"  d="M873 259.344C 852.09155 259.34396 835.14197 242.39436 835.14197 221.48598C 835.142 200.57758 852.0916 183.62799 873 183.62799C 893.9084 183.62799 910.85803 200.5776 910.85803 221.486C 910.85803 231.52657 906.8694 241.1559 899.76965 248.25565C 892.66986 255.35541 883.0405 259.344 873 259.344zM873 185.431C 858.41705 185.43098 845.2701 194.2155 839.68945 207.68834C 834.1088 221.16118 837.19354 236.66907 847.5052 246.98073C 857.8169 257.2924 873.32477 260.3771 886.7976 254.79646C 900.27045 249.21584 909.05493 236.06888 909.055 221.486C 909.05493 201.57336 892.9126 185.431 873 185.431z" stroke="none" fill="#CCCCCC" fill-rule="nonzero" />
            <path transform="matrix(1 0 0 1 -123.084 106.5)"  d="M1060 259.344C 1039.0916 259.34396 1022.14197 242.39436 1022.14197 221.48598C 1022.142 200.57758 1039.0916 183.62799 1060 183.62799C 1080.9084 183.62799 1097.858 200.5776 1097.858 221.486C 1097.858 231.52657 1093.8694 241.1559 1086.7697 248.25565C 1079.6699 255.35541 1070.0405 259.344 1060 259.344zM1060 185.431C 1040.0874 185.43102 1023.94507 201.57341 1023.9451 221.48604C 1023.9451 241.39865 1040.0875 257.54102 1060.0001 257.541C 1079.9127 257.541 1096.0552 241.3986 1096.055 221.486C 1096.0552 211.9236 1092.2565 202.75285 1085.4949 195.99124C 1078.7332 189.22961 1069.5625 185.43098 1060 185.431z" stroke="none" fill="#CCCCCC" fill-rule="nonzero" />
            <path transform="matrix(1 0 0 1 124.149 102.054)"  d="M304.255 236.95C 303.6058 236.9505 302.97406 236.73991 302.45502 236.34999L302.45502 236.34999L302.423 236.32599L295.64 231.13799C 294.31894 230.12509 294.06912 228.23305 295.082 226.91199C 296.09488 225.59093 297.98694 225.3411 299.308 226.35399L299.308 226.35399L303.70102 229.72299L314.08203 216.17899C 315.09445 214.8586 316.9855 214.60878 318.30603 215.62099L318.30603 215.62099L318.24203 215.70999L318.30804 215.62099C 319.6272 216.63466 319.87643 218.52507 318.86505 219.846L318.86505 219.846L306.65405 235.769C 306.08078 236.51317 305.19342 236.9476 304.25406 236.944L304.25406 236.944L304.255 236.95z" stroke="none" fill="#FFFFFF" fill-rule="nonzero" />
		</g>
		<g transform="matrix(1 0 0 1 808.073 222.403)">
            <path transform="matrix(1 0 0 1 -293.875 -349.453)"  d="M314.19 545.413C 314.8809 545.7287 315.54535 546.09924 316.177 546.521L316.177 546.521L379.331 519.567L381.58398 502.93103L406.81897 502.77603L405.32797 540.934L321.97098 562.981C 321.79523 563.56 321.5845 564.1277 321.33997 564.681C 317.97537 571.8593 309.44458 574.97205 302.24768 571.6474C 295.05078 568.32275 291.8907 559.80945 295.1753 552.5942C 298.45987 545.3789 306.95554 542.1715 314.18896 545.416L314.18896 545.416L314.19 545.413z" stroke="none" fill="#FEB8B8" fill-rule="nonzero" />
            <path transform="matrix(1 0 0 1 -190.709 -256.191)"  d="M312.83 797.912L295.567 797.912L287.35498 731.328L312.83197 731.328L312.83 797.912z" stroke="none" fill="#FEB8B8" fill-rule="nonzero" />
            <path transform="matrix(1 0 0 1 -213.164 -238.326)"  d="M305.692 775.115L338.98398 775.115L338.98398 796.07L284.73 796.07C 284.73 784.493 294.11502 775.10803 305.69202 775.10803L305.69202 775.10803L305.692 775.115z" stroke="none" fill="#2F2E41" fill-rule="nonzero" />
            <path transform="matrix(1 0 0 1 -82.3 -257.51)"  d="M271.557 794.354L254.37901 796.044L239.67902 730.586L265.03403 728.095L271.557 794.354z" stroke="none" fill="#FEB8B8" fill-rule="nonzero" />
            <path transform="matrix(1 0 0 1 -95.55 -239.834)"  d="M254.863 774.674L287.989 771.411L290.043 792.268L236.062 797.585C 234.92761 786.0671 243.34424 775.81 254.862 774.674L254.862 774.674L254.863 774.674z" stroke="none" fill="#2F2E41" fill-rule="nonzero" />
            <path transform="matrix(1 0 0 1 92.343 13.688)"  d="M0 34.583C 0 15.4833355 15.4833355 0 34.583 0C 53.682663 0 69.166 15.4833355 69.166 34.583C 69.166 53.682663 53.682663 69.166 34.583 69.166C 15.4833355 69.166 0 53.682663 0 34.583" stroke="none" fill="#FEB8B8" fill-rule="nonzero" />
            <path transform="matrix(1 0 0 1 -180.584 -311.329)"  d="M281.584 839.584C 278.52063 839.58984 275.89703 837.3912 275.367 834.37396C 266.43802 784.78394 237.22601 622.6019 236.52701 618.10596C 236.51117 618.00275 236.50348 617.8984 236.50401 617.79395L236.50401 617.79395L236.50401 605.7C 236.50299 605.2596 236.64047 604.83 236.89702 604.472L236.89702 604.472L240.75502 599.07196C 241.12674 598.5449 241.72171 598.2199 242.36601 598.19196C 264.36603 597.16095 336.402 594.13794 339.88202 598.48596C 343.377 602.85095 342.135 616.097 341.85303 618.70593L341.85303 618.70593L341.86703 618.9779L374.233 825.96C 374.76035 829.39575 372.42853 832.61743 369 833.19L369 833.19L348.786 836.52C 345.67456 837.0199 342.66565 835.168 341.71002 832.16504C 335.458 812.187 314.49402 744.981 307.22803 718.97504C 307.1468 718.61957 306.8062 718.386 306.4453 718.4383C 306.0844 718.49054 305.8241 718.8111 305.84702 719.17505C 306.21002 743.965 307.087 807.21106 307.39603 829.056L307.39603 829.056L307.42804 831.40906C 307.4557 834.711 304.95248 837.4852 301.66504 837.7961L301.66504 837.7961L282.17303 839.5621C 281.9772 839.57916 281.7806 839.5865 281.584 839.584z" stroke="none" fill="#2F2E41" fill-rule="nonzero" />
            <path transform="matrix(1 0 0 1 -191.749 -366.866)"  d="M296.727 463.319C 290.692 466.907 287.08 473.499 285.008 480.219C 281.17133 492.63974 278.86194 505.48175 278.13098 518.461L278.13098 518.461L275.94 557.32L248.827 660.348C 272.327 680.231 285.88 675.711 317.513 659.448C 349.146 643.185 352.76 664.87 352.76 664.87L352.76 664.87L359.08502 577.207L368.122 481.41397C 366.0931 478.97137 363.79678 476.76392 361.276 474.83298C 344.3521 461.66986 322.32477 456.99872 301.515 462.15997L301.515 462.15997L296.727 463.319z" stroke="none" fill="#E6E6E6" fill-rule="nonzero" />
            <path transform="matrix(1 0 0 1 -163.653 -345.262)"  d="M259.825 562.029C 260.55377 562.3017 261.25998 562.6314 261.937 563.015L261.937 563.015L324.384 531.75604L325.42 514.82306L351.17902 513.04706L352.55902 551.64703L269.109 579.247C 267.715 585.23444 262.76117 589.73444 256.6677 590.5484C 250.5742 591.3624 244.61288 588.32056 241.6961 582.909C 238.77931 577.4974 239.51584 570.8455 243.54585 566.20306C 247.57587 561.56067 254.05823 559.8966 259.82602 562.024L259.82602 562.024L259.825 562.029z" stroke="none" fill="#FEB8B8" fill-rule="nonzero" />
            <path transform="matrix(1 0 0 1 -93.417 -361.105)"  d="M269.34 476.085C 284.703 481.507 287.411 540.256 287.411 540.256C 269.336 530.315 247.64601 546.582 247.64601 546.582C 247.64601 546.582 243.128 531.217 237.70502 511.33597C 234.37692 499.96884 237.10536 487.68918 244.93402 478.80096C 244.93402 478.80096 253.975 470.66 269.34 476.085z" stroke="none" fill="#E6E6E6" fill-rule="nonzero" />
            <path transform="matrix(1 0 0 1 -165.894 -393.886)"  d="M323.823 451.3C 319.514 447.853 313.636 454.116 313.636 454.116L313.636 454.116L310.189 423.1C 310.189 423.1 288.646 425.681 274.85498 422.238C 261.06396 418.795 258.912 434.738 258.912 434.738C 258.201 428.29947 258.0568 421.81082 258.481 415.34702C 259.343 407.591 270.54498 399.83502 290.366 394.664C 310.187 389.49298 320.528 411.9 320.528 411.9C 334.324 418.789 328.137 454.751 323.823 451.3z" stroke="none" fill="#2F2E41" fill-rule="nonzero" />
		</g>
        <path transform="matrix(1 0 0 1 290.808 780.153)"  d="M0 0L737.385 0L737.385 2.19L0 2.19z" stroke="none" fill="#E6E6E6" fill-rule="nonzero" />
        <path transform="matrix(1 0 0 1 96.861 97.368)"  d="M265.082 644.111C 271.49905 646.3668 278.62808 645.11096 283.888 640.79803C 290.475 635.27 292.54 626.16205 294.22 617.728L294.22 617.728L299.19 592.783L288.785 599.948C 281.302 605.1 273.651 610.41797 268.469 617.881C 263.287 625.344 261.026 635.532 265.189 643.607" stroke="none" fill="#E6E6E6" fill-rule="nonzero" />
        <path transform="matrix(1 0 0 1 95.868 55.076)"  d="M267.682 718.34C 266.372 708.79803 265.025 699.13403 265.944 689.49005C 266.76 680.92505 269.373 672.56006 274.693 665.70105C 277.5167 662.06744 280.95248 658.9541 284.846 656.50104C 285.86102 655.86005 286.79602 657.46906 285.785 658.10706C 279.04666 662.3642 273.83447 668.6514 270.9 676.062C 267.66 684.30304 267.13998 693.286 267.69998 702.039C 268.038 707.333 268.753 712.592 269.47397 717.844C 269.59167 718.3369 269.30765 718.8368 268.82397 718.988C 268.32898 719.1211 267.81897 718.83136 267.67996 718.33795L267.67996 718.33795L267.682 718.34z" stroke="none" fill="#F2F2F2" fill-rule="nonzero" />
        <path transform="matrix(1 0 0 1 83.697 44.629)"  d="M289.28 713.477C 292.0321 717.65985 296.76718 720.10376 301.771 719.924C 308.094 719.624 313.366 715.211 318.111 711.024L318.111 711.024L332.147 698.63196L322.858 698.188C 316.178 697.868 309.325 697.57 302.958 699.63C 296.591 701.69 290.72702 706.648 289.564 713.23" stroke="none" fill="#E6E6E6" fill-rule="nonzero" />
        <path transform="matrix(1 0 0 1 96.961 31.377)"  d="M262.887 747.524C 269.18698 736.368 276.505 723.969 289.572 720.006C 293.20526 718.9079 297.01495 718.5145 300.796 718.847C 301.98798 718.94696 301.69 720.787 300.496 720.68396C 294.1581 720.15784 287.8325 721.8315 282.584 725.423C 277.53302 728.86096 273.601 733.63995 270.273 738.709C 268.234 741.80896 266.40802 745.05 264.582 748.282C 264 749.314 262.3 748.569 262.887 747.524z" stroke="none" fill="#F2F2F2" fill-rule="nonzero" />
		<g transform="matrix(1 0 0 1 2 7)">
            <path transform="matrix(1 0 0 1 -108.981 -172.87)"  d="M911.208 622.87L595.519 622.87C 592.2919 622.86615 589.6768 620.2511 589.673 617.024L589.673 617.024L589.673 538.715C 589.6768 535.4879 592.2919 532.87286 595.519 532.869L595.519 532.869L911.208 532.869C 914.43506 532.87286 917.0501 535.4879 917.054 538.715L917.054 538.715L917.054 617.02405C 917.0501 620.2511 914.435 622.86615 911.208 622.87zM595.519 535.208C 593.5825 535.21027 592.01324 536.77954 592.011 538.716L592.011 538.716L592.011 617.025C 592.0127 618.9618 593.5823 620.5314 595.519 620.533L595.519 620.533L911.208 620.533C 913.1448 620.5314 914.71436 618.9618 914.716 617.025L914.716 617.025L914.716 538.715C 914.71436 536.7783 913.1448 535.20874 911.208 535.20703z" stroke="none" fill="#E6E6E6" fill-rule="nonzero" />
            <path transform="matrix(1 0 0 1 -99.78 -170.602)"  d="M690.369 556.72C 688.9494 556.7175 687.6366 557.47345 686.9261 558.7025C 686.2156 559.9315 686.2156 561.4464 686.9261 562.6754C 687.6366 563.9045 688.9494 564.6604 690.369 564.65796L690.369 564.65796L877.477 564.65796C 879.6663 564.6542 881.43915 562.8783 881.43915 560.68896C 881.43915 558.49963 879.6663 556.72375 877.477 556.72L877.477 556.72L690.369 556.72z" stroke="none" fill="#E6E6E6" fill-rule="nonzero" />
            <path transform="matrix(1 0 0 1 -99.78 -168.533)"  d="M690.369 578.466C 688.9494 578.46356 687.6366 579.2195 686.9261 580.44855C 686.2156 581.67755 686.2156 583.19244 686.9261 584.42145C 687.6366 585.6505 688.9494 586.40643 690.369 586.404L690.369 586.404L770.882 586.404C 772.30164 586.40643 773.61444 585.6505 774.32495 584.42145C 775.03546 583.19244 775.03546 581.67755 774.32495 580.44855C 773.61444 579.2195 772.30164 578.46356 770.882 578.466L770.882 578.466L690.369 578.466z" stroke="none" fill="#E6E6E6" fill-rule="nonzero" />
			<g>
                <path transform="matrix(1 0 0 1 512 378)"  d="M47.628 23.814C 47.628 30.390055 45.303013 36.003067 40.653038 40.653038C 36.003067 45.303013 30.390055 47.628 23.814 47.628C 17.237946 47.628 11.624932 45.303013 6.9749584 40.653038C 2.3249862 36.003067 0 30.390055 0 23.814C 0 17.237946 2.3249862 11.624932 6.9749584 6.9749584C 11.624932 2.3249862 17.237946 0 23.814 0C 30.390055 0 36.003067 2.3249862 40.653038 6.9749584C 45.303013 11.624932 47.628 17.237946 47.628 23.814C 47.628 24.091116 47.62316 24.368149 47.61349 24.645096" stroke="none" fill="#E6E6E6" fill-rule="nonzero" />
                <path transform="matrix(1 0 0 1 225.541 173)"  d="M306.53 242.049C 305.7299 242.05016 304.95105 241.79112 304.311 241.31099L304.311 241.31099L304.271 241.28099L295.913 234.887C 294.28375 233.63884 293.97482 231.30624 295.22296 229.677C 296.47113 228.04776 298.80374 227.73885 300.43298 228.987L300.43298 228.987L305.847 233.138L318.63998 216.448C 319.88748 214.82095 322.2176 214.51295 323.84497 215.76L323.84497 215.76L323.76596 215.87L323.84796 215.76C 325.47324 217.00903 325.7806 219.33807 324.53497 220.96599L324.53497 220.96599L309.488 240.6C 308.78235 241.51611 307.69034 242.05139 306.534 242.048L306.534 242.048L306.53 242.049z" stroke="none" fill="#003153" fill-rule="nonzero" />
			</g>
		</g>
	</g>
</g>
</svg>