<?xml version="1.0" standalone="no"?>
<!DOCTYPE svg PUBLIC "-//W3C//DTD SVG 1.0//EN" "http://www.w3.org/TR/2001/REC-SVG-20010904/DTD/svg10.dtd">
<svg xmlns="http://www.w3.org/2000/svg" xmlns:xlink="http://www.w3.org/1999/xlink" id="body_1" width="363" height="338">

<g transform="matrix(0.59838974 0 0 0.59838974 0.2107914 -0)">
    <path transform="matrix(1 0 0 1 -297.0382 -167.57533)"  d="M502.1518 421.57532C 450.7851 421.57532 404.4763 390.63275 384.8191 343.17612C 365.16193 295.71945 376.0275 241.0945 412.34924 204.77277C 448.671 168.45102 503.29593 157.58543 550.75256 177.24261C 598.2092 196.89981 629.1518 243.20862 629.1518 294.57532C 629.0724 364.68256 572.25903 421.4959 502.1518 421.57532zM502.1518 169.57532C 451.59402 169.57532 406.01447 200.0306 386.66687 246.73988C 367.3192 293.4492 378.0137 347.21393 413.76346 382.96365C 449.51318 418.7134 503.27792 429.4079 549.98724 410.06024C 596.69653 390.71265 627.1518 345.1331 627.1518 294.57532C 627.1518 225.5397 571.1874 169.57532 502.1518 169.57533z" stroke="none" fill="#F2F2F2" fill-rule="nonzero" />
    <path transform="matrix(1 0 0 1 -297.0382 -167.57533)"  d="M422.51343 299.12817C 418.98422 286.26105 447.44904 275.22723 454.92383 285.58917C 455.96323 284.11603 459.8044 283.22116 461.56683 283.67313C 463.29193 284.24594 464.88626 285.15524 466.25757 286.34842C 468.24594 287.87585 470.30658 289.45752 471.5267 291.65375C 472.75592 293.84094 472.9457 296.82355 471.29175 298.7215C 469.98123 300.23083 466.1129 301.20697 464.14264 301.60464C 462.7689 301.88483 461.612 302.11078 460.61783 302.27344C 459.71478 300.97238 459.2988 299.39487 459.44284 297.8177C 458.08792 298.7317 457.2127 300.20367 457.05685 301.8306C 457.02972 302.165 468.16458 343.13446 468.16458 343.13446C 466.82672 343.89587 465.4195 344.52835 463.96185 345.02338C 461.0783 340.61642 458.86972 335.8032 457.40927 330.7433C 457.07358 334.12674 457.11603 337.53702 457.53583 340.91107C 457.7591 342.80298 458.07886 344.68246 458.49384 346.54175C 445.26212 349.3978 425.36038 348.45786 416.70193 336.31076L416.70193 336.31076L416.69757 336.15988C 416.68372 335.17096 415.97125 334.3304 414.998 334.15472C 414.0247 333.97903 413.06332 334.5174 412.70456 335.43906C 412.49448 335.97498 412.30115 336.43884 412.12863 336.80783C 409.60712 327.78778 412.86984 317.34885 422.51343 299.12817z" stroke="none" fill="#2F2E41" fill-rule="nonzero" />
    <path d="M187.875 543.116L197.734 543.033L202.098 504.12L187.548 504.243L187.875 543.116L187.875 543.116" stroke="none" fill="#A0616A" fill-rule="nonzero" />
    <path transform="matrix(1 0 0 1 -297.0382 -167.57533)"  d="M514.5603 722.75964L498.81458 712.0798L498.75516 705.0248L495.36905 705.2515L484.87347 705.97504L482.30032 706.14624L480.43274 731.0808L487.82874 731.01373L489.08902 724.0227L492.5205 730.9783L512.1218 730.8147C 514.0503 730.7979 515.744 729.5296 516.3028 727.6838C 516.86163 725.8379 516.1557 723.84314 514.56036 722.7596L514.56036 722.7596L514.5603 722.75964z" stroke="none" fill="#2F2E41" fill-rule="nonzero" />
    <path d="M89.571 539.272L99.318 540.754L109.798 503.025L95.412 500.839L89.571 539.272L89.571 539.272" stroke="none" fill="#A0616A" fill-rule="nonzero" />
    <path transform="matrix(1 0 0 1 -297.0382 -167.57533)"  d="M413.9675 723.46436L400.11462 710.4226L401.17474 703.4475L397.79553 703.1344L387.31802 702.1843L384.75027 701.9453L378.95215 726.2682L386.26514 727.3748L388.61813 720.6721L390.90314 728.08386L410.28232 731.0308C 412.1891 731.32007 414.06256 730.33636 414.90698 728.60254C 415.75143 726.86865 415.37082 724.7872 413.9674 723.46436L413.9674 723.46436L413.9675 723.46436z" stroke="none" fill="#2F2E41" fill-rule="nonzero" />
    <path transform="matrix(1 0 0 1 -297.0382 -167.57533)"  d="M480.37888 438.8292L508.33167 488.8933C 508.33167 488.8933 507.16534 591.858 510.8802 595.677C 514.59503 599.49603 517.95856 602.9212 514.5951 602.8903C 511.23163 602.85944 507.16068 611.0435 507.16068 611.0435L507.16068 611.0435L500.20367 688.4079L482.66068 688.4079C 482.66068 688.4079 470.31668 642.7849 472.94775 616.7679L472.94775 616.7679L452.16565 521.69104C 452.16565 521.69104 437.23523 611.6044 434.54443 614.29517C 431.85364 616.98596 430.23053 616.9668 433.06018 619.6672C 435.88983 622.36755 433.06018 628.47473 433.06018 628.47473L433.06018 628.47473L403.56262 689.6956L387.56262 687.67773C 387.56262 687.67773 390.33646 637.6988 399.99564 616.2429L399.99564 616.2429L399.99564 514.8482C 399.26804 523.5417 433.2989 435.5526 412.4886 442.1567C 419.0724 440.06732 480.37888 438.8292 480.37888 438.8292z" stroke="none" fill="#2F2E41" fill-rule="nonzero" />
    <path transform="matrix(1 0 0 1 -297.0382 -167.57533)"  d="M456.62045 343.36664L428.20465 337.33896L422.56256 348.69574L403.56256 359.69574C 403.56256 359.69574 415.8098 409.77188 415.73996 416.81482C 415.56256 434.69574 386.95224 474.7794 408.56256 471.69574C 430.17288 468.6121 434.56256 455.69574 441.50006 457.73807C 470.1217 466.16397 504.1376 465.27078 492.56256 453.69574C 480.98752 442.1207 483.57404 365.0689 483.57404 365.0689L483.57404 365.0689L461.15427 354.4737L456.62045 343.36664z" stroke="none" fill="#003153" fill-rule="nonzero" />
    <path transform="matrix(1 0 0 1 -297.0382 -167.57533)"  d="M403.0252 525.2218C 405.39926 522.39087 405.08783 518.1844 402.32275 515.7339C 402.04868 515.4986 401.75558 515.2864 401.4465 515.0995L401.4465 515.0995L406.19763 491.78207L395.2141 485.20837L392.15912 517.854C 390.7692 520.613 391.41306 523.9621 393.7269 526.0091C 395.03094 527.14056 396.73102 527.70764 398.4532 527.58563C 400.17532 527.4636 401.77847 526.6625 402.9099 525.35846C 402.94897 525.3135 402.9874 525.26794 403.0252 525.2218z" stroke="none" fill="#A0616A" fill-rule="nonzero" />
    <path transform="matrix(1 0 0 1 -297.0382 -167.57533)"  d="M396.95837 416.11734L397.87207 373.62735C 397.98798 368.23135 400.27734 363.11063 404.2212 359.426C 408.16504 355.74136 413.42935 353.8049 418.82077 354.05557C 427.50302 354.4612 425.18976 357.93048 427.49603 366.31113C 431.24353 379.93372 432.685 387.80826 431.78052 389.71518C 431.4744 390.3609 431.15176 390.9796 430.84143 391.5748C 429.24292 394.6402 428.08807 396.85516 431.0231 398.97696C 432.184 399.74478 433.44833 400.34332 434.77805 400.7546C 436.10272 401.22525 437.06012 401.56525 437.12738 402.31427C 437.192 403.0394 436.3738 403.7911 434.1077 405.08768C 428.02332 408.5699 422.74713 429.3826 422.6956 429.58826L422.6956 429.58826L405.03967 503.65192L390.9745 502.95355L396.95837 416.11734z" stroke="none" fill="#003153" fill-rule="nonzero" />
    <path transform="matrix(1 0 0 1 -297.0382 -167.57533)"  d="M573.9397 474.17035C 570.28186 473.6498 567.7035 470.31158 568.124 466.6409C 568.1708 466.28275 568.24713 465.92905 568.35223 465.58347L568.35223 465.58347L549.23975 451.40646L553.0213 439.17737L577.1034 461.42877C 579.9807 462.55328 581.739 465.4756 581.3847 468.5445C 580.93805 472.11182 577.6841 474.64163 574.1168 474.195C 574.0577 474.18762 573.99866 474.1794 573.9397 474.17035z" stroke="none" fill="#A0616A" fill-rule="nonzero" />
    <path transform="matrix(1 0 0 1 -297.0382 -167.57533)"  d="M568.0307 449.54962L558.03107 459.46545L495.41507 416.1481C 495.23935 416.02948 477.40936 404.06705 470.55557 405.54053C 468.00317 406.0896 466.89215 406.0768 466.4558 405.49408C 466.00546 404.89178 466.4908 403.9992 467.16208 402.76407C 467.8768 401.56976 468.41776 400.27972 468.76865 398.9328C 469.5352 395.3932 467.19617 394.51648 463.95886 393.30334C 463.33032 393.06778 462.6769 392.8229 462.01776 392.5469C 460.07083 391.73215 455.88287 384.90958 449.57095 372.26923C 445.68842 364.49234 441.64948 363.45612 447.8391 357.35416C 451.68353 353.5659 456.89447 351.49005 462.29065 351.59717C 467.68686 351.7043 472.81128 353.98535 476.50232 357.92325L476.50232 357.92325L505.5675 388.9306L568.0307 449.54962z" stroke="none" fill="#003153" fill-rule="nonzero" />
    <path d="M170.77666 146.15466C 170.77666 152.55649 168.51328 158.02078 163.98651 162.54755C 159.45975 167.07431 153.99545 169.3377 147.59363 169.33769C 141.19182 169.3377 135.72752 167.07431 131.20074 162.54755C 126.67398 158.02078 124.4106 152.55649 124.4106 146.15466C 124.4106 139.75285 126.67398 134.28856 131.20074 129.76178C 135.72752 125.23502 141.19182 122.97164 147.59363 122.971634C 153.99545 122.97164 159.45975 125.23502 163.98651 129.76178C 168.51328 134.28856 170.77666 139.75285 170.77666 146.15466C 170.77666 146.42444 170.77196 146.69414 170.76254 146.96375" stroke="none" fill="#A0616A" fill-rule="nonzero" />
    <path transform="matrix(1 0 0 1 -297.0382 -167.57533)"  d="M409.86017 300.9358C 406.33096 288.06866 434.79578 277.0348 442.27057 287.3968C 443.30997 285.92365 447.15112 285.02878 448.91357 285.48074C 450.63867 286.05356 452.23303 286.9629 453.6043 288.15604C 455.59268 289.68347 457.65332 291.26514 458.87344 293.46136C 460.10266 295.64856 460.29245 298.63116 458.6385 300.5291C 457.32797 302.03845 453.45966 303.0146 451.48935 303.41226C 450.1156 303.69244 448.9587 303.9184 447.96454 304.08105C 447.0615 302.78003 446.6455 301.20248 446.78955 299.6253C 445.43463 300.5393 444.55942 302.01132 444.40356 303.6382C 444.37643 303.97263 455.5113 344.94208 455.5113 344.94208C 454.17343 345.7035 452.7662 346.33597 451.3086 346.831C 448.42505 342.42404 446.21646 337.6108 444.756 332.5509C 444.42032 335.93436 444.46277 339.34464 444.88257 342.7187C 445.10583 344.6106 445.4256 346.49008 445.84058 348.34937C 432.60886 351.2054 412.70712 350.26547 404.04868 338.11838L404.04868 338.11838L404.0443 337.9675C 404.0304 336.97864 403.31796 336.13818 402.34476 335.9625C 401.37152 335.7868 400.4102 336.3251 400.05136 337.24667C 399.84128 337.7826 399.64795 338.24646 399.47543 338.61545C 396.95386 329.5954 400.21658 319.15646 409.86017 300.9358z" stroke="none" fill="#2F2E41" fill-rule="nonzero" />
    <path transform="matrix(1 0 0 1 -297.0382 -167.57533)"  d="" stroke="none" fill="#2F2E41" fill-rule="nonzero" />
    <path transform="matrix(1 0 0 1 -297.0382 -167.57533)"  d="M351.29706 714.73737C 350.3449 714.7811 349.46686 714.2252 349.09915 713.3458C 348.73145 712.46643 348.95245 711.451 349.65237 710.804L349.65237 710.804L349.80786 710.1858C 349.78738 710.1363 349.76678 710.0868 349.74606 710.0374C 348.78864 707.7759 346.56732 706.31006 344.11148 706.31915C 341.65567 706.32825 339.44528 707.81055 338.50467 710.07916C 336.66608 714.5073 334.32523 718.94305 333.74887 723.6251C 333.49503 725.6947 333.60208 727.7926 334.06534 729.82556C 329.74704 720.40564 327.50464 710.16736 327.49017 699.8048C 327.48926 697.2045 327.63373 694.606 327.9229 692.0218C 328.16193 689.90326 328.4935 687.7998 328.91763 685.7115C 331.2322 674.38025 336.20166 663.7597 343.41782 654.722C 346.91043 652.8163 349.73495 649.8858 351.5108 646.32544C 352.1541 645.04565 352.6088 643.67944 352.86072 642.2693C 352.4667 642.321 351.37515 636.3206 351.6723 635.9525C 351.12326 635.1193 350.14053 634.7052 349.54086 633.89215C 346.55853 629.84875 342.44968 630.55475 340.30466 636.04944C 335.7224 638.3621 335.67807 642.1975 338.48965 645.8863C 340.27844 648.2331 340.5242 651.4086 342.09372 653.9211C 341.93222 654.1278 341.76428 654.32806 341.6028 654.5347C 338.65112 658.3303 336.0785 662.40594 333.9218 666.7033C 334.4463 661.889 333.8203 657.01886 332.09543 652.4937C 330.34723 648.27637 327.07053 644.72455 324.18497 641.07874C 322.62424 639.07587 320.01093 638.21014 317.56314 638.88495C 315.11536 639.5598 313.31488 641.6424 313.00098 644.16205C 312.9951 644.2158 312.98932 644.26953 312.98367 644.32324C 314.03915 645.02844 314.55353 646.30927 314.27896 647.5486C 314.00436 648.7879 312.9972 649.7316 311.7426 649.925L311.7426 649.925L311.67984 649.9347C 311.83252 651.47943 312.1024 653.01025 312.48718 654.51404C 308.7854 668.82983 316.77728 674.04395 328.18866 674.2782C 328.44058 674.40735 328.68604 674.5365 328.93796 674.6593C 326.77118 680.79987 325.41202 687.19604 324.89468 693.6871C 324.60184 697.5166 324.6191 701.3636 324.94635 705.1903L324.94635 705.1903L324.92697 705.0547C 324.284 701.2365 322.47937 697.7095 319.759 694.9542C 314.81342 690.8916 307.82617 689.3955 302.49075 686.12994C 301.33304 685.3866 299.84906 685.383 298.68768 686.12067C 297.5263 686.85834 296.8988 688.2031 297.07953 689.567L297.07953 689.567L297.10135 689.70966C 297.8967 690.03357 298.67108 690.40674 299.42 690.827C 299.84863 691.06885 300.2682 691.3255 300.67865 691.5969C 301.73413 692.3021 302.24847 693.58295 301.9739 694.82227C 301.69934 696.0616 300.69214 697.0053 299.4376 697.1987L299.4376 697.1987L299.3748 697.2084C 299.3296 697.21484 299.29077 697.2213 299.24567 697.22784C 300.60464 700.47266 302.51202 703.45935 304.88422 706.05707C 307.19885 718.5542 317.14023 719.73987 327.77444 716.1006L327.77444 716.1006L327.78094 716.1006C 328.94772 721.17084 330.63824 726.1061 332.82535 730.8268L332.82535 730.8268L350.84552 730.8268C 350.91016 730.6266 350.96826 730.41986 351.0264 730.2196C 349.35843 730.3245 347.68387 730.2248 346.0401 729.9226C 347.3771 728.28204 348.7141 726.62854 350.0511 724.988C 350.0809 724.9574 350.10895 724.92505 350.1351 724.8911C 350.81326 724.0515 351.49792 723.21826 352.1761 722.37866L352.1761 722.37866L352.17645 722.3777C 352.2126 719.8039 351.91724 717.23615 351.2977 714.73785L351.2977 714.73785L351.29706 714.73737z" stroke="none" fill="#F2F2F2" fill-rule="nonzero" />
    <path transform="matrix(1 0 0 1 -297.0382 -167.57533)"  d="M297.7057 731.2347C 297.70474 731.5506 297.82983 731.8538 298.05322 732.0772C 298.2766 732.3006 298.57983 732.42566 298.89575 732.4247L298.89575 732.4247L552.1857 732.4247C 552.84296 732.4247 553.37573 731.8919 553.37573 731.2347C 553.37573 730.57745 552.84296 730.0447 552.1857 730.0447L552.1857 730.0447L298.89575 730.0447C 298.57983 730.0437 298.2766 730.16876 298.05322 730.39215C 297.82983 730.6155 297.70474 730.91876 297.7057 731.2347z" stroke="none" fill="#CCCCCC" fill-rule="nonzero" />
    <path transform="matrix(1 0 0 1 -297.0382 -167.57533)"  d="M851.1813 224.69574L595.65814 224.69574C 589.5328 224.69574 583.6583 227.129 579.3271 231.46027C 574.9958 235.79152 572.5625 241.66597 572.56256 247.7913L572.56256 247.7913L572.56256 633.6001C 572.56256 646.3555 582.9028 656.69574 595.65814 656.69574L595.65814 656.69574L851.1813 656.69574C 863.93665 656.69574 874.27686 646.3555 874.27686 633.6001C 908.17334 502.4862 909.2159 373.8061 874.27686 247.79129C 874.27686 235.03595 863.9366 224.69572 851.1813 224.69574zM603.4197 603.24243C 603.4197 604.2341 603.02576 605.1851 602.3245 605.8863C 601.62335 606.5875 600.6723 606.98145 599.68066 606.98145L599.68066 606.98145L590.01587 606.98145C 589.02423 606.98145 588.0732 606.5875 587.372 605.8863C 586.6708 605.1851 586.27686 604.2341 586.27686 603.24243L586.27686 603.24243L586.27686 593.5776C 586.27686 592.58594 586.6708 591.6349 587.372 590.9337C 588.0732 590.2325 589.02423 589.83856 590.01587 589.83856L590.01587 589.83856L599.68066 589.83856C 600.6723 589.83856 601.62335 590.2325 602.3245 590.9337C 603.02576 591.6349 603.4197 592.58594 603.4197 593.5776zM603.4197 565.09955C 603.4197 566.0912 603.02576 567.04224 602.3245 567.7434C 601.62335 568.44464 600.6723 568.83856 599.68066 568.83856L599.68066 568.83856L590.01587 568.83856C 589.02423 568.83856 588.0732 568.44464 587.372 567.7434C 586.6708 567.04224 586.27686 566.0912 586.27686 565.09955L586.27686 565.09955L586.27686 555.4347C 586.27686 554.44305 586.6708 553.492 587.372 552.79083C 588.0732 552.0896 589.02423 551.6957 590.01587 551.6957L590.01587 551.6957L599.68066 551.6957C 600.6723 551.6957 601.62335 552.0896 602.3245 552.79083C 603.02576 553.492 603.4197 554.44305 603.4197 555.4347zM603.4197 526.9567C 603.4197 527.94836 603.02576 528.8994 602.3245 529.6006C 601.62335 530.3018 600.6723 530.69574 599.68066 530.69574L599.68066 530.69574L590.01587 530.69574C 589.02423 530.69574 588.0732 530.3018 587.372 529.6006C 586.6708 528.8994 586.27686 527.94836 586.27686 526.9567L586.27686 526.9567L586.27686 517.2919C 586.27686 516.30023 586.6708 515.3492 587.372 514.648C 588.0732 513.9468 589.02423 513.55286 590.01587 513.55286L590.01587 513.55286L599.68066 513.55286C 600.6723 513.55286 601.62335 513.9468 602.3245 514.648C 603.02576 515.3492 603.4197 516.30023 603.4197 517.2919zM603.4197 488.81387C 603.4197 489.8055 603.02576 490.75653 602.3245 491.45773C 601.62335 492.15894 600.6723 492.5529 599.68066 492.5529L599.68066 492.5529L590.01587 492.5529C 589.02423 492.5529 588.0732 492.15894 587.372 491.45773C 586.6708 490.75653 586.27686 489.8055 586.27686 488.81387L586.27686 488.81387L586.27686 479.149C 586.27686 478.15735 586.6708 477.20633 587.372 476.50513C 588.0732 475.80392 589.02423 475.40997 590.01587 475.40997L590.01587 475.40997L599.68066 475.40997C 600.6723 475.40997 601.62335 475.80392 602.3245 476.50513C 603.02576 477.20633 603.4197 478.15735 603.4197 479.149zM603.4197 450.67102C 603.4197 451.66266 603.02576 452.61368 602.3245 453.31488C 601.62335 454.01608 600.6723 454.41003 599.68066 454.41003L599.68066 454.41003L590.01587 454.41003C 589.02423 454.41003 588.0732 454.01608 587.372 453.31488C 586.6708 452.61368 586.27686 451.66266 586.27686 450.67102L586.27686 450.67102L586.27686 441.0062C 586.27686 440.01456 586.6708 439.06354 587.372 438.36234C 588.0732 437.66113 589.02423 437.26718 590.01587 437.26718L590.01587 437.26718L599.68066 437.26718C 600.6723 437.26718 601.62335 437.66113 602.3245 438.36234C 603.02576 439.06354 603.4197 440.01456 603.4197 441.0062zM603.4197 412.52817C 603.4197 413.5198 603.02576 414.47083 602.3245 415.17203C 601.62335 415.87323 600.6723 416.26718 599.68066 416.26718L599.68066 416.26718L590.01587 416.26718C 589.02423 416.26718 588.0732 415.87323 587.372 415.17203C 586.6708 414.47083 586.27686 413.5198 586.27686 412.52817L586.27686 412.52817L586.27686 402.86334C 586.27686 401.8717 586.6708 400.9207 587.372 400.21948C 588.0732 399.51828 589.02423 399.12433 590.01587 399.12433L590.01587 399.12433L599.68066 399.12433C 600.6723 399.12433 601.62335 399.51828 602.3245 400.21948C 603.02576 400.9207 603.4197 401.8717 603.4197 402.86334zM603.4197 374.3853C 603.4197 375.37695 603.02576 376.32797 602.3245 377.02917C 601.62335 377.73038 600.6723 378.12433 599.68066 378.12433L599.68066 378.12433L590.01587 378.12433C 589.02423 378.12433 588.0732 377.73038 587.372 377.02917C 586.6708 376.32797 586.27686 375.37695 586.27686 374.3853L586.27686 374.3853L586.27686 364.7205C 586.27686 363.72885 586.6708 362.77783 587.372 362.07663C 588.0732 361.37543 589.02423 360.98148 590.01587 360.98148L590.01587 360.98148L599.68066 360.98148C 600.6723 360.98148 601.62335 361.37543 602.3245 362.07663C 603.02576 362.77783 603.4197 363.72885 603.4197 364.7205zM603.4197 336.24246C 603.4197 337.2341 603.02576 338.18512 602.3245 338.88632C 601.62335 339.58752 600.6723 339.98148 599.68066 339.98148L599.68066 339.98148L590.01587 339.98148C 589.02423 339.98148 588.0732 339.58752 587.372 338.88632C 586.6708 338.18512 586.27686 337.2341 586.27686 336.24246L586.27686 336.24246L586.27686 326.57764C 586.27686 325.586 586.6708 324.63498 587.372 323.93378C 588.0732 323.23257 589.02423 322.83862 590.01587 322.83862L590.01587 322.83862L599.68066 322.83862C 600.6723 322.83862 601.62335 323.23257 602.3245 323.93378C 603.02576 324.63498 603.4197 325.586 603.4197 326.57764zM603.4197 298.0996C 603.4197 299.09125 603.02576 300.04227 602.3245 300.74347C 601.62335 301.44467 600.6723 301.83862 599.68066 301.83862L599.68066 301.83862L590.01587 301.83862C 589.02423 301.83862 588.0732 301.44467 587.372 300.74347C 586.6708 300.04227 586.27686 299.09125 586.27686 298.0996L586.27686 298.0996L586.27686 288.43478C 586.27686 287.44315 586.6708 286.49213 587.372 285.79092C 588.0732 285.08972 589.02423 284.69577 590.01587 284.69577L590.01587 284.69577L599.68066 284.69577C 600.6723 284.69577 601.62335 285.08972 602.3245 285.79092C 603.02576 286.49213 603.4197 287.44315 603.4197 288.43478z" stroke="none" fill="#F2F2F2" fill-rule="nonzero" />
    <path d="M289.23865 79.87293C 289.23865 78.66834 290.21515 77.69183 291.41974 77.69183L291.41974 77.69183L304.2004 77.69183C 305.405 77.69183 306.3815 78.66834 306.3815 79.87293L306.3815 79.87293L306.3815 92.653595C 306.3815 93.858185 305.405 94.834694 304.2004 94.834694L304.2004 94.834694L291.41974 94.834694C 290.21515 94.834694 289.23865 93.858185 289.23865 92.653595L289.23865 92.653595L289.23865 79.87293z" stroke="none" fill="#003153" fill-rule="nonzero" />
    <path transform="matrix(1 0 0 1 -297.0382 -167.57533)"  d="M824.56256 294.267L637.9483 294.267C 637.396 294.267 636.9483 293.81927 636.9483 293.267C 636.9483 292.71472 637.396 292.267 637.9483 292.267L637.9483 292.267L824.56256 292.267C 825.11487 292.267 825.56256 292.71472 825.56256 293.267C 825.56256 293.81927 825.11487 294.267 824.56256 294.267z" stroke="none" fill="#E6E6E6" fill-rule="nonzero" />
    <path transform="matrix(1 0 0 1 -297.0382 -167.57533)"  d="M824.56256 256.55267L771.4195 256.55267C 770.8672 256.55267 770.4195 256.10495 770.4195 255.55267C 770.4195 255.00038 770.8672 254.55267 771.4195 254.55267L771.4195 254.55267L824.56256 254.55267C 824.9198 254.55267 825.24994 254.74327 825.4286 255.05267C 825.60724 255.36208 825.60724 255.74327 825.4286 256.05267C 825.24994 256.36206 824.9198 256.55267 824.56256 256.55267z" stroke="none" fill="#E6E6E6" fill-rule="nonzero" />
    <path transform="matrix(1 0 0 1 -297.0382 -167.57533)"  d="M824.56256 331.98138L637.9483 331.98138C 637.396 331.98138 636.9483 331.53366 636.9483 330.98138C 636.9483 330.4291 637.396 329.98138 637.9483 329.98138L637.9483 329.98138L824.56256 329.98138C 825.11487 329.98138 825.56256 330.4291 825.56256 330.98138C 825.56256 331.53366 825.11487 331.98138 824.56256 331.98138z" stroke="none" fill="#E6E6E6" fill-rule="nonzero" />
    <path transform="matrix(1 0 0 1 -297.0382 -167.57533)"  d="M824.56256 369.69574L637.9483 369.69574C 637.396 369.69574 636.9483 369.24802 636.9483 368.69574C 636.9483 368.14346 637.396 367.69574 637.9483 367.69574L637.9483 367.69574L824.56256 367.69574C 825.11487 367.69574 825.56256 368.14346 825.56256 368.69574C 825.56256 369.24802 825.11487 369.69574 824.56256 369.69574z" stroke="none" fill="#E6E6E6" fill-rule="nonzero" />
    <path transform="matrix(1 0 0 1 -297.0382 -167.57533)"  d="M824.56256 407.4101L637.9483 407.4101C 637.396 407.4101 636.9483 406.96237 636.9483 406.4101C 636.9483 405.85782 637.396 405.4101 637.9483 405.4101L637.9483 405.4101L824.56256 405.4101C 825.11487 405.4101 825.56256 405.85782 825.56256 406.4101C 825.56256 406.96237 825.11487 407.4101 824.56256 407.4101z" stroke="none" fill="#E6E6E6" fill-rule="nonzero" />
    <path transform="matrix(1 0 0 1 -297.0382 -167.57533)"  d="M824.56256 445.12445L637.9483 445.12445C 637.396 445.12445 636.9483 444.67673 636.9483 444.12445C 636.9483 443.57217 637.396 443.12445 637.9483 443.12445L637.9483 443.12445L824.56256 443.12445C 824.9198 443.12445 825.24994 443.31506 825.4286 443.62445C 825.60724 443.93384 825.60724 444.31506 825.4286 444.62445C 825.24994 444.93384 824.9198 445.12445 824.56256 445.12445z" stroke="none" fill="#E6E6E6" fill-rule="nonzero" />
    <path transform="matrix(1 0 0 1 -297.0382 -167.57533)"  d="M824.56256 482.83832L637.9483 482.83832C 637.396 482.83832 636.9483 482.3906 636.9483 481.83832C 636.9483 481.28604 637.396 480.83832 637.9483 480.83832L637.9483 480.83832L824.56256 480.83832C 825.11487 480.83832 825.56256 481.28604 825.56256 481.83832C 825.56256 482.3906 825.11487 482.83832 824.56256 482.83832z" stroke="none" fill="#E6E6E6" fill-rule="nonzero" />
    <path transform="matrix(1 0 0 1 -297.0382 -167.57533)"  d="M824.56256 520.55316L637.9483 520.55316C 637.396 520.55316 636.9483 520.10547 636.9483 519.55316C 636.9483 519.00085 637.396 518.55316 637.9483 518.55316L637.9483 518.55316L824.56256 518.55316C 825.11487 518.55316 825.56256 519.00085 825.56256 519.55316C 825.56256 520.10547 825.11487 520.55316 824.56256 520.55316z" stroke="none" fill="#E6E6E6" fill-rule="nonzero" />
    <path transform="matrix(1 0 0 1 -297.0382 -167.57533)"  d="M824.56256 558.267L637.9483 558.267C 637.396 558.267 636.9483 557.81934 636.9483 557.267C 636.9483 556.7147 637.396 556.267 637.9483 556.267L637.9483 556.267L824.56256 556.267C 825.11487 556.267 825.56256 556.7147 825.56256 557.267C 825.56256 557.81934 825.11487 558.267 824.56256 558.267z" stroke="none" fill="#E6E6E6" fill-rule="nonzero" />
    <path transform="matrix(1 0 0 1 -297.0382 -167.57533)"  d="M824.56256 595.9819L637.9483 595.9819C 637.396 595.9819 636.9483 595.5342 636.9483 594.9819C 636.9483 594.42957 637.396 593.9819 637.9483 593.9819L637.9483 593.9819L824.56256 593.9819C 825.11487 593.9819 825.56256 594.42957 825.56256 594.9819C 825.56256 595.5342 825.11487 595.9819 824.56256 595.9819z" stroke="none" fill="#E6E6E6" fill-rule="nonzero" />
    <path transform="matrix(1 0 0 1 -297.0382 -167.57533)"  d="M796.8967 285.4627L668.1956 285.4627C 666.8326 285.46432 665.57245 284.7381 664.89044 283.55798C 664.2085 282.37787 664.2085 280.9234 664.89044 279.7433C 665.57245 278.56317 666.8326 277.83694 668.1956 277.8386L668.1956 277.8386L796.8967 277.8386C 799.00024 277.8411 800.7042 279.54706 800.7042 281.65063C 800.7042 283.7542 799.00024 285.46017 796.8967 285.4627z" stroke="none" fill="#CCCCCC" fill-rule="nonzero" />
    <path transform="matrix(1 0 0 1 -297.0382 -167.57533)"  d="M796.8967 323.177L668.1956 323.177C 666.8326 323.17862 665.57245 322.4524 664.89044 321.27228C 664.2085 320.09216 664.2085 318.6377 664.89044 317.45758C 665.57245 316.27747 666.8326 315.55124 668.1956 315.5529L668.1956 315.5529L796.8967 315.5529C 799.00024 315.5554 800.7042 317.26135 800.7042 319.36493C 800.7042 321.4685 799.00024 323.17447 796.8967 323.177z" stroke="none" fill="#CCCCCC" fill-rule="nonzero" />
    <path transform="matrix(1 0 0 1 -297.0382 -167.57533)"  d="M796.8967 360.89127L668.1956 360.89127C 666.8326 360.8929 665.57245 360.1667 664.89044 358.98657C 664.2085 357.80646 664.2085 356.352 664.89044 355.17188C 665.57245 353.99176 666.8326 353.26553 668.1956 353.26715L668.1956 353.26715L796.8967 353.26715C 799.00024 353.26968 800.7042 354.97565 800.7042 357.07922C 800.7042 359.1828 799.00024 360.88876 796.8967 360.89127z" stroke="none" fill="#CCCCCC" fill-rule="nonzero" />
    <path transform="matrix(1 0 0 1 -297.0382 -167.57533)"  d="M796.8967 398.60556L668.1956 398.60556C 666.8326 398.6072 665.57245 397.88098 664.89044 396.70087C 664.2085 395.52075 664.2085 394.06628 664.89044 392.88617C 665.57245 391.70605 666.8326 390.97983 668.1956 390.98145L668.1956 390.98145L796.8967 390.98145C 799.00024 390.98398 800.7042 392.68994 800.7042 394.79352C 800.7042 396.8971 799.00024 398.60306 796.8967 398.60556z" stroke="none" fill="#CCCCCC" fill-rule="nonzero" />
    <path transform="matrix(1 0 0 1 -297.0382 -167.57533)"  d="M796.8967 436.31985L668.1956 436.31985C 666.8326 436.3215 665.57245 435.59528 664.89044 434.41516C 664.2085 433.23505 664.2085 431.78058 664.89044 430.60046C 665.57245 429.42035 666.8326 428.69412 668.1956 428.69574L668.1956 428.69574L796.8967 428.69574C 799.00024 428.69827 800.7042 430.40424 800.7042 432.5078C 800.7042 434.6114 799.00024 436.31735 796.8967 436.31985z" stroke="none" fill="#CCCCCC" fill-rule="nonzero" />
    <path transform="matrix(1 0 0 1 -297.0382 -167.57533)"  d="M796.8967 474.03415L668.1956 474.03415C 666.8326 474.0358 665.57245 473.30957 664.89044 472.12946C 664.2085 470.94934 664.2085 469.49487 664.89044 468.31476C 665.57245 467.13464 666.8326 466.40842 668.1956 466.41003L668.1956 466.41003L796.8967 466.41003C 799.00024 466.41257 800.7042 468.11853 800.7042 470.2221C 800.7042 472.32568 799.00024 474.03165 796.8967 474.03415z" stroke="none" fill="#CCCCCC" fill-rule="nonzero" />
    <path transform="matrix(1 0 0 1 -297.0382 -167.57533)"  d="M796.8967 511.74844L668.1956 511.74844C 666.8326 511.7501 665.57245 511.02386 664.89044 509.84375C 664.2085 508.66364 664.2085 507.20917 664.89044 506.02905C 665.57245 504.84894 666.8326 504.1227 668.1956 504.12433L668.1956 504.12433L796.8967 504.12433C 799.00024 504.12686 800.7042 505.83282 800.7042 507.9364C 800.7042 510.03998 799.00024 511.74594 796.8967 511.74844z" stroke="none" fill="#CCCCCC" fill-rule="nonzero" />
    <path transform="matrix(1 0 0 1 -297.0382 -167.57533)"  d="M796.8967 549.4627L668.1956 549.4627C 666.8309 549.46686 665.56805 548.7412 664.8845 547.56006C 664.2009 546.37885 664.2009 544.9224 664.8845 543.7412C 665.56805 542.56006 666.8309 541.8344 668.1956 541.8386L668.1956 541.8386L796.8967 541.8386C 798.9975 541.84503 800.6971 543.54987 800.6971 545.65063C 800.6971 547.7514 798.9975 549.45624 796.8967 549.4627z" stroke="none" fill="#CCCCCC" fill-rule="nonzero" />
    <path transform="matrix(1 0 0 1 -297.0382 -167.57533)"  d="M796.8967 587.177L668.1956 587.177C 666.8337 587.177 665.57526 586.45044 664.8943 585.27094C 664.2133 584.0915 664.2133 582.63837 664.8943 581.45886C 665.57526 580.2794 666.8337 579.55286 668.1956 579.55286L668.1956 579.55286L796.8967 579.55286C 799.0021 579.55286 800.7088 581.2596 800.7088 583.3649C 800.7088 585.4703 799.0021 587.177 796.8967 587.177z" stroke="none" fill="#CCCCCC" fill-rule="nonzero" />
    <path transform="matrix(1 0 0 1 -297.0382 -167.57533)"  d="M680.6332 256.932L647.32654 256.932C 646.77423 256.932 646.32654 257.37973 646.32654 257.932C 646.32654 258.48428 646.77423 258.932 647.32654 258.932L647.32654 258.932L662.97986 258.932L662.97986 291.5697C 662.97986 292.12198 663.42755 292.5697 663.97986 292.5697C 664.53217 292.5697 664.97986 292.12198 664.97986 291.5697L664.97986 291.5697L664.97986 274.5853C 664.97986 270.4338 666.6291 266.45233 669.56464 263.51675C 672.5002 260.5812 676.4817 258.932 680.6332 258.932C 681.1855 258.932 681.6332 258.48428 681.6332 257.932C 681.6332 257.37973 681.1855 256.932 680.6332 256.932z" stroke="none" fill="#3F3D56" fill-rule="nonzero" />
    <path transform="matrix(1 0 0 1 -297.0382 -167.57533)"  d="M801.56256 595.1249C 801.0103 595.1249 794 594.6771 794 594.1249L794 594.1249L800.56256 560.81824C 800.56256 560.2659 801.01025 559.81824 801.56256 559.81824C 802.11487 559.81824 802.56256 560.2659 802.56256 560.81824L802.56256 560.81824L802.56256 594.1249C 802.5625 594.6771 802.1148 595.1248 801.56256 595.1249z" stroke="none" fill="#3F3D56" fill-rule="nonzero" />
    <path transform="matrix(1 0 0 1 -297.0382 -167.57533)"  d="M877.147 247.79132C 877.147 235.03603 866.80676 224.69579 854.0515 224.69574L854.0515 224.69574L595.5625 224.69574C 606.0136 224.69574 731.594 232.08058 811.59924 241.40207C 838.9526 244.58563 861.21 264.89587 866.8776 291.84442C 890.3996 403.75558 886.1032 517.7274 856.147 633.6001C 856.14703 646.3554 845.8068 656.6957 833.0515 656.69574L833.0515 656.69574L854.0515 656.69574C 866.8068 656.6957 877.14703 646.3554 877.147 633.6001C 911.0435 502.4862 912.086 373.8061 877.147 247.79132z" stroke="none" fill="#E6E6E6" fill-rule="nonzero" />
    <path transform="matrix(1 0 0 1 -297.0382 -167.57533)"  d="M867.399 645.29926L865.46246 644.79926C 899.6568 512.5336 899.6685 382.94183 865.4986 259.62054C 858.271 246.51794 844.88513 237.98143 829.9566 236.95454L829.9566 236.95454L727.49176 229.6933L727.63336 227.69818L830.0982 234.95941C 845.745 236.0365 859.76715 245.00497 867.3067 258.75775L867.3067 258.75775L867.3946 258.97308C 884.67053 321.2544 893.36725 385.60193 893.2442 450.2348C 893.1153 513.83246 884.4195 579.46234 867.399 645.29926z" stroke="none" fill="#FFFFFF" fill-rule="nonzero" />
</g>
</svg>