<?xml version="1.0" standalone="no"?>
<!DOCTYPE svg PUBLIC "-//W3C//DTD SVG 1.0//EN" "http://www.w3.org/TR/2001/REC-SVG-20010904/DTD/svg10.dtd">
<svg xmlns="http://www.w3.org/2000/svg" xmlns:xlink="http://www.w3.org/1999/xlink" id="body_1" width="390" height="375">

<g transform="matrix(0.60029984 0 0 0.60029984 -0 0.043875676)">
    <path transform="matrix(1 0 0 1 -275.16232 -137.72919)"  d="M766.19727 469.75714C 789.40344 456.18497 820.32684 453.34872 842.6798 468.2838C 814.77295 476.9958 790.84705 495.298 775.1354 519.9523C 769.1105 529.48236 763.4017 540.7095 752.7016 544.2635C 746.04376 546.47504 738.6129 545.1115 732.29175 542.069C 725.97034 539.0262 720.5505 534.42896 715.20746 529.88245L715.20746 529.88245L713.501 529.4886C 726.41235 505.90848 742.9911 483.3293 766.19727 469.75714z" stroke="none" fill="#F0F0F0" fill-rule="nonzero" />
    <path transform="matrix(1 0 0 1 -275.16232 -137.72919)"  d="M842.4325 468.79083C 820.24426 467.10767 798.0897 472.45853 779.1157 484.08344C 774.9866 486.5135 771.26636 489.57922 768.0919 493.1678C 765.11255 496.7634 763.1504 501.09125 762.40936 505.70166C 761.632 509.98654 761.3331 514.4595 759.5277 518.4808C 757.59674 522.6164 753.99255 525.7313 749.62085 527.0428C 744.2773 528.7985 738.62146 528.52954 733.09973 528.0742C 726.9689 527.5687 720.6089 526.94653 714.7387 529.2282C 714.02747 529.5047 713.6401 528.3849 714.3503 528.1088C 724.5634 524.1391 735.51807 528.62213 746.007 526.73346C 750.90137 525.8522 755.55975 523.49054 757.9735 518.96124C 760.0843 515.00055 760.3965 510.38824 761.14606 506.0429C 761.80304 501.53476 763.55396 497.25604 766.2457 493.58047C 769.2272 489.8419 772.8231 486.63794 776.8796 484.10583C 785.92096 478.25952 795.8253 473.8712 806.2299 471.1016C 818.08704 467.87482 830.4088 466.7001 842.66205 467.62833C 843.4204 467.6861 843.1859 468.84833 842.4325 468.79092L842.4325 468.79092L842.4325 468.79083z" stroke="none" fill="#FFFFFF" fill-rule="nonzero" />
    <path transform="matrix(1 0 0 1 -275.16232 -137.72919)"  d="M785.00494 479.98065C 781.86926 472.8589 784.3546 464.51404 790.8759 460.2685C 791.51624 459.85477 792.1892 460.83032 791.5481 461.24463C 785.4659 465.18832 783.1639 472.9754 786.12427 479.59222C 786.4348 480.28854 785.31366 480.673 785.0049 479.98068L785.0049 479.98068L785.00494 479.98065z" stroke="none" fill="#FFFFFF" fill-rule="nonzero" />
    <path transform="matrix(1 0 0 1 -275.16232 -137.72919)"  d="M762.51733 503.47714C 769.6709 506.33093 777.63727 506.3836 784.828 503.6247C 785.5402 503.35077 785.9278 504.4705 785.21643 504.74408C 777.7282 507.60114 769.43805 507.52945 762.0004 504.54333C 761.2917 504.25824 761.81244 503.19357 762.5173 503.47714L762.5173 503.47714L762.51733 503.47714z" stroke="none" fill="#FFFFFF" fill-rule="nonzero" />
    <path transform="matrix(1 0 0 1 -275.16232 -137.72919)"  d="M817.86334 469.42975C 818.4919 472.38858 820.56616 474.83304 823.38324 475.9348C 824.0952 476.21082 823.5737 477.2752 822.8664 477.001C 819.761 475.76978 817.4678 473.0794 816.74396 469.81818C 816.64795 469.5098 816.80786 469.17987 817.10944 469.06427C 817.41846 468.9588 817.75476 469.12183 817.86334 469.42972L817.86334 469.42972L817.86334 469.42975z" stroke="none" fill="#FFFFFF" fill-rule="nonzero" />
    <path transform="matrix(1 0 0 1 -275.16232 -137.72919)"  d="M851.9459 558.83344C 851.49646 558.67377 851.04694 558.51404 850.58923 558.36005C 844.5352 556.2445 838.3194 554.62427 832.003 553.5154C 831.516 553.4219 831.02106 553.3345 830.5324 553.2552C 815.2864 550.7458 799.70685 551.0888 784.58594 554.26666C 778.57007 555.53674 772.65967 557.2627 766.90576 559.4295C 758.95953 562.4224 750.5819 566.29974 742.3532 566.4873C 741.49493 566.51654 740.6357 566.49255 739.78033 566.41547L739.78033 566.41547L713.1528 531.601C 713.13196 531.4915 713.10297 531.3877 713.08185 531.27783L713.08185 531.27783L711.95514 529.9364C 712.2441 529.8039 712.54663 529.6727 712.8356 529.5402C 713.00287 529.46265 713.1761 529.3929 713.3434 529.31537C 713.4568 529.2661 713.57056 529.2172 713.67004 529.1664C 713.70776 529.14984 713.7457 529.1337 713.7755 529.1232C 713.87506 529.0723 713.9729 529.0356 714.06445 528.9907C 715.75354 528.25275 717.4507 527.5253 719.156 526.80853C 719.16394 526.8024 719.16394 526.8024 719.17786 526.80414C 732.1854 521.3755 745.7605 516.9851 759.57043 514.7947C 759.98596 514.72894 760.4091 514.6567 760.8368 514.6068C 767.06714 513.65405 773.3649 513.21204 779.66724 513.2853C 783.11816 513.3365 786.564 513.5624 789.99207 513.962C 798.84753 515.01166 807.4828 517.44775 815.5812 521.1808C 831.7242 528.62506 845.30676 541.1493 851.4861 557.574C 851.64386 557.9942 851.7961 558.4071 851.9459 558.83344z" stroke="none" fill="#F0F0F0" fill-rule="nonzero" />
    <path transform="matrix(1 0 0 1 -275.16232 -137.72919)"  d="M851.44415 559.09314C 834.74146 544.3904 813.8307 535.32416 791.682 533.1824C 786.92206 532.63666 782.1059 532.8446 777.41077 533.79865C 772.86707 534.8758 768.69476 537.14996 765.32733 540.38495C 762.1269 543.3382 759.1952 546.7296 755.3326 548.85345C 751.3009 550.9929 746.5477 551.31 742.2676 549.72504C 736.9439 547.90967 732.5901 544.28973 728.4554 540.60175C 723.8646 536.50696 719.1611 532.18097 713.10034 530.4685C 712.366 530.261 712.7309 529.13367 713.4641 529.3409C 724.0088 532.3203 730.0564 542.49524 739.56836 547.30225C 744.00684 549.5453 749.14813 550.46436 753.80237 548.3013C 757.8723 546.40967 760.8985 542.915 764.11316 539.8968C 767.352 536.6928 771.32605 534.3306 775.68823 533.0166C 780.3197 531.82666 785.1199 531.4335 789.8832 531.85394C 800.62213 532.6295 811.1723 535.0888 821.1473 539.1417C 832.5573 543.7041 843.1028 550.18463 852.32745 558.30316C 852.8982 558.8059 852.0112 559.59265 851.4442 559.09326L851.4442 559.09326L851.44415 559.09314z" stroke="none" fill="#FFFFFF" fill-rule="nonzero" />
    <path transform="matrix(1 0 0 1 -275.16232 -137.72919)"  d="M798.85443 533.4523C 800.63855 525.878 807.64716 520.7115 815.4102 521.248C 815.7288 521.2727 815.9705 521.5455 815.9568 521.8647C 815.943 522.18396 815.6787 522.4349 815.3592 522.43207C 808.12854 521.91895 801.6022 526.7505 799.98206 533.81604C 799.8108 534.55896 798.68414 534.1909 798.85443 533.4523z" stroke="none" fill="#FFFFFF" fill-rule="nonzero" />
    <path transform="matrix(1 0 0 1 -275.16232 -137.72919)"  d="M766.75287 538.6738C 770.7464 545.25934 777.0754 550.0977 784.47784 552.2242C 785.2114 552.43427 784.84674 553.56165 784.1141 553.3518C 776.41504 551.1246 769.8389 546.0761 765.69824 539.2139C 765.304 538.5596 766.3608 538.023 766.7528 538.6738L766.7528 538.6738L766.75287 538.6738z" stroke="none" fill="#FFFFFF" fill-rule="nonzero" />
    <path transform="matrix(1 0 0 1 -275.16232 -137.72919)"  d="M831.4424 544.811C 830.1628 547.5518 830.3472 550.75244 831.93317 553.32825C 832.3355 553.97723 831.27826 554.5132 830.8786 553.86835C 829.1404 551.01556 828.9292 547.4868 830.31476 544.44714C 830.4237 544.1431 830.75006 543.976 831.0605 544.06525C 831.3707 544.16705 831.5411 544.49976 831.4424 544.811z" stroke="none" fill="#FFFFFF" fill-rule="nonzero" />
    <path transform="matrix(1 0 0 1 -275.16232 -137.72919)"  d="M314.34982 682.19965C 317.07242 655.4542 333.01642 628.80676 358.25958 619.5603C 348.8398 647.2363 349.51303 677.3522 360.1601 704.5795C 364.3043 715.0651 370.00543 726.2961 366.56628 737.0337C 364.42648 743.7149 358.94342 748.9123 352.75876 752.2235C 346.57376 755.5347 339.6649 757.2012 332.84225 758.83545L332.84225 758.83545L331.51788 759.98145C 320.08707 735.64905 311.62723 708.94507 314.34982 682.19965z" stroke="none" fill="#F0F0F0" fill-rule="nonzero" />
    <path transform="matrix(1 0 0 1 -275.16232 -137.72919)"  d="M358.52322 620.059C 344.08002 636.9866 335.33768 658.0348 333.538 680.214C 333.0658 684.9817 333.34808 689.7941 334.37445 694.47406C 335.52158 699.00055 337.8599 703.13727 341.14645 706.4544C 344.1487 709.6089 347.58502 712.4879 349.7682 716.31726C 351.96964 720.3154 352.36005 725.06305 350.84137 729.3672C 349.10837 734.7182 345.5561 739.12744 341.93237 743.31854C 337.90894 747.972 333.6561 752.7417 332.03738 758.8282C 331.84125 759.5657 330.70837 759.2182 330.90427 758.4819C 333.72058 747.89246 343.80093 741.68854 348.46057 732.1035C 350.63486 727.631 351.47443 722.4761 349.23972 717.8558C 347.28555 713.81555 343.74454 710.8436 340.67706 707.6759C 337.4235 704.48694 335.00024 700.5498 333.61902 696.20844C 332.35773 691.5959 331.8905 686.80237 332.2374 682.03314C 332.84717 671.2835 335.1433 660.6966 339.04175 650.6603C 343.42746 639.1813 349.74454 628.537 357.7196 619.18805C 358.21344 618.6096 359.01382 619.4844 358.52322 620.059z" stroke="none" fill="#FFFFFF" fill-rule="nonzero" />
    <path transform="matrix(1 0 0 1 -275.16232 -137.72919)"  d="M333.6971 673.03827C 326.09622 671.3713 320.82217 664.44324 321.23874 656.67285C 321.25943 656.3546 321.5281 656.10974 321.84686 656.1185C 322.16565 656.1273 322.42038 656.38666 322.42346 656.70557C 322.02203 663.9433 326.9538 670.39435 334.04346 671.90515C 334.78894 672.06494 334.43835 673.19714 333.6971 673.03827z" stroke="none" fill="#FFFFFF" fill-rule="nonzero" />
    <path transform="matrix(1 0 0 1 -275.16232 -137.72919)"  d="M339.41357 705.0554C 345.9367 700.9607 350.67682 694.55774 352.68875 687.12335C 352.88748 686.3866 354.02036 686.7338 353.82187 687.46967C 351.71378 695.20215 346.7674 701.8554 339.96988 706.1015C 339.3217 706.5058 338.7689 705.45746 339.41354 705.05536L339.41354 705.05536L339.41357 705.0554z" stroke="none" fill="#FFFFFF" fill-rule="nonzero" />
    <path transform="matrix(1 0 0 1 -275.16232 -137.72919)"  d="M344.55148 640.2789C 347.31183 641.516 350.50922 641.2822 353.06018 639.6567C 353.7029 639.2444 354.25507 640.2932 353.61652 640.7028C 350.79095 642.48486 347.26584 642.7505 344.20514 641.41205C 343.8994 641.3078 343.72723 640.984 343.81174 640.6723C 343.90875 640.3605 344.23874 640.185 344.55145 640.27893L344.55145 640.27893L344.55148 640.2789z" stroke="none" fill="#FFFFFF" fill-rule="nonzero" />
    <path transform="matrix(1 0 0 1 -275.16232 -137.72919)"  d="M436.85526 665.4713C 436.46124 665.7402 436.06726 666.00903 435.67294 666.2879C 430.39447 669.9299 425.42056 673.9946 420.80035 678.44214C 420.43768 678.78033 420.07523 679.1285 419.72302 679.4764C 408.70612 690.31006 399.7963 703.0949 393.44656 717.1811C 390.925 722.7886 388.8337 728.5799 387.19077 734.50476C 384.92227 742.6873 383.11377 751.7398 378.41296 758.4962C 377.93045 759.20667 377.40436 759.8865 376.8378 760.5318L376.8378 760.5318L333.01862 761.5082C 332.9179 761.46045 332.81696 761.4226 332.71576 761.3749L332.71576 761.3749L330.96796 761.4939C 331.03134 761.18243 331.1038 760.8607 331.16718 760.5492C 331.2032 760.36835 331.249 760.1873 331.285 760.0065C 331.3121 759.88586 331.3397 759.76514 331.35727 759.6547C 331.36615 759.61456 331.3755 759.57434 331.38458 759.5441C 331.40216 759.4337 331.4302 759.33307 331.44797 759.23267C 331.84793 757.43335 332.26123 755.63367 332.68787 753.8337C 332.68762 753.82367 332.68762 753.82367 332.69717 753.8135C 335.983 740.1069 340.44196 726.55414 346.81616 714.1091C 347.00806 713.7347 347.19925 713.35034 347.41116 712.9755C 350.31552 707.3819 353.6723 702.0348 357.44778 696.988C 359.52405 694.231 361.73837 691.5812 364.0826 689.0482C 370.15216 682.51514 377.21155 676.9775 385.002 672.6382C 400.53345 663.99005 418.6578 660.40546 435.56686 665.0999C 435.99936 665.2204 436.42255 665.3409 436.85526 665.4713z" stroke="none" fill="#F0F0F0" fill-rule="nonzero" />
    <path transform="matrix(1 0 0 1 -275.16232 -137.72919)"  d="M436.76913 666.02966C 415.0454 670.8497 395.3927 682.39197 380.6024 699.0172C 377.35486 702.53973 374.68286 706.5521 372.68472 710.9067C 370.8754 715.2115 370.25183 719.9223 370.8788 724.54956C 371.37674 728.8758 372.38705 733.2434 371.82468 737.61536C 371.17523 742.1331 368.62857 746.15894 364.8246 748.68115C 360.21924 751.9103 354.72824 753.29205 349.31158 754.4567C 343.2974 755.7498 337.03003 756.99774 332.07312 760.8828C 331.47253 761.3535 330.77722 760.3941 331.37692 759.9241C 340.00113 753.1647 351.7849 754.2802 361.27625 749.43256C 365.70508 747.17053 369.47903 743.5601 370.47647 738.52563C 371.3487 734.12317 370.31067 729.61835 369.76865 725.2423C 369.09082 720.73724 369.52643 716.1347 371.0374 711.83673C 372.80734 707.39453 375.32034 703.2858 378.46875 699.6867C 385.4276 691.4709 393.635 684.4003 402.79025 678.73395C 413.2032 672.2091 424.65558 667.51355 436.65192 664.8505C 437.39447 664.68604 437.50693 665.86633 436.76917 666.0298L436.76917 666.0298L436.76913 666.02966z" stroke="none" fill="#FFFFFF" fill-rule="nonzero" />
    <path transform="matrix(1 0 0 1 -275.16232 -137.72919)"  d="M385.0497 693.3836C 379.98447 687.4763 379.94458 678.76935 384.9555 672.8159C 385.44843 672.2344 386.3753 672.973 385.8817 673.5553C 381.20355 679.0925 381.25732 687.2126 386.00842 692.6874C 386.50742 693.2638 385.54587 693.9567 385.04968 693.3836L385.04968 693.3836L385.0497 693.3836z" stroke="none" fill="#FFFFFF" fill-rule="nonzero" />
    <path transform="matrix(1 0 0 1 -275.16232 -137.72919)"  d="M370.33743 722.3892C 378.01108 723.04724 385.65082 720.78876 391.73325 716.0641C 392.3355 715.5955 393.03098 716.5548 392.42944 717.0228C 386.09073 721.9276 378.13562 724.2617 370.15176 723.55945C 369.39084 723.492 369.5806 722.32214 370.3374 722.3892L370.3374 722.3892L370.33743 722.3892z" stroke="none" fill="#FFFFFF" fill-rule="nonzero" />
    <path transform="matrix(1 0 0 1 -275.16232 -137.72919)"  d="M413.43973 673.76215C 414.89886 676.4118 417.5926 678.15015 420.60806 678.3881C 421.36948 678.4459 421.1789 679.6157 420.42242 679.55835C 417.0935 679.28 414.119 677.36975 412.481 674.4584C 412.29968 674.1911 412.35712 673.829 412.61224 673.6309C 412.8774 673.44037 413.24655 673.4989 413.43973 673.7622L413.43973 673.7622L413.43973 673.76215z" stroke="none" fill="#FFFFFF" fill-rule="nonzero" />
	<g>
        <path transform="matrix(1 0 0 1 -275.16232 -137.72919)"  d="M652.06757 211.2392L416.18256 188.0372C 413.45 187.75354 410.80914 186.89143 408.43555 185.5082C 405.9867 184.08315 403.816 182.22655 402.02853 180.0282C 398.1859 175.32903 396.07782 169.45042 396.05853 163.3802C 396.0562 161.90169 396.18774 160.426 396.45154 158.9712C 396.7041 157.57768 397.0902 156.21175 397.60455 154.89221C 398.10236 153.61548 398.72964 152.3931 399.47656 151.24422C 400.21136 150.11542 401.066 149.06934 402.02557 148.12422C 402.959 147.20355 403.9936 146.39137 405.1096 145.70322C 407.28204 144.36388 409.7379 143.55186 412.28058 143.33221C 413.5803 143.22076 414.88834 143.2543 416.18057 143.43222L416.18057 143.43222L652.06757 175.34023C 653.86804 175.60764 655.5729 176.32169 657.02655 177.41722C 658.6187 178.61194 659.9799 180.08669 661.0436 181.76923C 662.2289 183.62251 663.13586 185.63965 663.7356 187.75623C 664.3895 190.03577 664.72076 192.3957 664.7196 194.76723C 664.72095 195.92279 664.64075 197.07697 664.4796 198.22122C 664.3263 199.31155 664.0903 200.38869 663.7736 201.44322C 663.4726 202.44716 663.0876 203.42392 662.6226 204.36322C 662.1789 205.2603 661.6508 206.11313 661.0456 206.91022C 660.4801 207.65733 659.83466 208.34038 659.1206 208.94722C 658.4584 209.50935 657.72833 209.98639 656.94763 210.36722C 655.43335 211.10605 653.743 211.4077 652.06665 211.23822L652.06665 211.23822L652.06757 211.2392z" stroke="none" fill="#E4E4E4" fill-rule="nonzero" />
        <path transform="matrix(1 0 0 1 -275.16232 -137.72919)"  d="M547.2235 200.92719L416.1825 188.03719C 413.44995 187.75351 410.80908 186.8914 408.4355 185.50818C 405.98663 184.08315 403.81595 182.22655 402.02847 180.02818C 398.18585 175.32903 396.07776 169.45042 396.05847 163.38019C 396.05615 161.90167 396.18768 160.42598 396.45148 158.97119C 396.70404 157.57768 397.09015 156.21175 397.6045 154.8922C 398.1023 153.61548 398.72958 152.3931 399.4765 151.2442C 400.2113 150.1154 401.06595 149.06932 402.0255 148.1242C 402.95895 147.20352 403.99353 146.39134 405.10953 145.7032C 407.28198 144.36386 409.73785 143.55185 412.28052 143.3322C 413.58023 143.22075 414.88828 143.25429 416.1805 143.4322L416.1805 143.4322L547.2205 161.16121L547.2235 200.92719z" stroke="none" fill="#003153" fill-rule="nonzero" />
        <path transform="matrix(1 0 0 1 -275.16232 -137.72919)"  d="M546.88855 203.85619C 546.28253 203.79295 545.7 203.58736 545.18854 203.25618C 544.6491 202.90822 544.17914 202.46298 543.80255 201.94318C 543.3928 201.38153 543.07544 200.758 542.86255 200.09618C 542.63336 199.39153 542.5166 198.65517 542.51654 197.91417L542.51654 197.91417L542.51654 163.06818C 542.5121 162.35371 542.6287 161.64365 542.8615 160.96817C 543.067 160.3707 543.3866 159.8188 543.8025 159.34317C 544.181 158.90555 544.65717 158.563 545.1925 158.34317C 545.732 158.12918 546.3181 158.06023 546.8925 158.14317C 547.4994 158.23286 548.07764 158.46072 548.5825 158.80917C 549.11865 159.1801 549.58405 159.6441 549.95654 160.17917C 550.3603 160.75102 550.6733 161.38177 550.8845 162.04916C 551.1095 162.75296 551.2242 163.4873 551.22455 164.22617L551.22455 164.22617L551.22455 198.79117C 551.2287 199.5052 551.1138 200.21494 550.8845 200.89117C 550.6811 201.49496 550.36633 202.0553 549.95654 202.54317C 549.5817 202.99077 549.11066 203.34798 548.57855 203.58817C 548.04767 203.82162 547.4655 203.91396 546.88855 203.85619z" stroke="none" fill="#3F3D56" fill-rule="nonzero" />
        <path transform="matrix(1 0 0 1 -275.16232 -137.72919)"  d="M337.26855 175.25319C 337.03513 175.2293 336.80362 175.18953 336.57556 175.13419C 336.34207 175.07735 336.11258 175.00519 335.88855 174.91818C 335.6582 174.82884 335.43375 174.72496 335.21655 174.60718C 334.99176 174.48526 334.7747 174.34967 334.56656 174.20117C 333.30786 173.30429 332.4118 171.98645 332.04056 170.48618C 331.91745 169.9872 331.85532 169.47513 331.85556 168.96118L331.85556 168.96118L331.85556 142.79518C 331.85373 142.2963 331.91592 141.79924 332.04056 141.31618C 332.15775 140.8601 332.3378 140.42259 332.57556 140.01617C 333.04193 139.22217 333.73587 138.58641 334.56757 138.19118C 334.9855 137.99124 335.43063 137.8541 335.88858 137.78418C 336.34573 137.7151 336.81033 137.71107 337.2686 137.77219C 337.74203 137.83572 338.20505 137.96147 338.6456 138.14618C 339.11188 138.34175 339.5525 138.59361 339.9576 138.89618L339.9576 138.89618L360.85562 154.42117C 361.2291 154.69908 361.57114 155.01697 361.8756 155.36917C 362.47882 156.06651 362.9258 156.88483 363.1866 157.76917C 363.31732 158.21262 363.39948 158.66896 363.4316 159.13016C 363.43164 159.16693 363.43396 159.20367 363.4386 159.24016C 363.44327 159.27669 363.44327 159.31364 363.4386 159.35016L363.4386 159.35016L363.4386 159.57115C 363.44025 160.05827 363.3811 160.54369 363.2626 161.01616C 363.15054 161.46147 362.979 161.88965 362.7526 162.28915C 362.53265 162.67639 362.25818 163.03 361.9376 163.33916C 361.617 163.64957 361.25244 163.91104 360.8556 164.11516L360.8556 164.11516L339.9556 174.75616C 339.74747 174.862 339.5319 174.95258 339.3106 175.02716C 339.09244 175.10088 338.86917 175.15869 338.6426 175.20016C 338.41666 175.24144 338.18808 175.2665 337.95862 175.27516C 337.72836 175.28392 337.49777 175.27658 337.26855 175.25319z" stroke="none" fill="#CACACA" fill-rule="nonzero" />
	</g>
	<g>
        <path transform="matrix(1 0 0 1 -275.16232 -137.72919)"  d="M652.1135 325.1742L416.25354 329.6222C 413.58246 329.67163 410.93466 329.11752 408.50754 328.0012C 406.07394 326.87445 403.89432 325.26566 402.10052 323.2722C 400.21606 321.1833 398.73718 318.76166 397.73953 316.1312C 395.5954 310.45596 395.5954 304.19345 397.73953 298.5182C 398.73746 295.88724 400.2163 293.465 402.10052 291.37518C 403.89417 289.37997 406.07376 287.7692 408.50754 286.6402C 410.93436 285.52243 413.5821 284.9666 416.25354 285.0142L416.25354 285.0142L652.1135 289.2772C 653.87134 289.32187 655.5846 289.8401 657.0725 290.7772C 658.66125 291.78082 660.0279 293.09882 661.0885 294.65018C 662.2829 296.38446 663.19147 298.2991 663.7795 300.32117C 665.09106 304.82495 665.09106 309.60938 663.7795 314.11316C 663.19147 316.13614 662.28296 318.0518 661.0885 319.78717C 660.02875 321.34247 658.66205 322.66455 657.0725 323.67218C 655.5847 324.60977 653.8715 325.12866 652.1135 325.1742z" stroke="none" fill="#E4E4E4" fill-rule="nonzero" />
        <path transform="matrix(1 0 0 1 -275.16232 -137.72919)"  d="M508.44052 327.8842L416.25354 329.6222C 413.58246 329.67163 410.93466 329.11752 408.50754 328.0012C 406.07394 326.87445 403.89432 325.26566 402.10052 323.2722C 400.21606 321.1833 398.73718 318.76166 397.73953 316.1312C 396.6698 313.31885 396.1248 310.33417 396.13153 307.3252C 396.13058 305.83154 396.26212 304.3407 396.52454 302.8702C 396.78088 301.43393 397.1668 300.02383 397.67755 298.6572C 398.18 297.31277 398.8067 296.0182 399.54956 294.7902C 400.287 293.57123 401.14026 292.42624 402.09756 291.3712C 403.02927 290.34085 404.0625 289.40714 405.18158 288.5842C 406.25742 287.79428 407.41385 287.1205 408.6316 286.5742C 411.02615 285.4985 413.629 284.9658 416.2536 285.0142L416.2536 285.0142L508.4406 286.68018L508.44052 327.8842z" stroke="none" fill="#003153" fill-rule="nonzero" />
        <path transform="matrix(1 0 0 1 -275.16232 -137.72919)"  d="M509.51752 330.49118C 508.88785 330.50403 508.26456 330.36328 507.7015 330.08118C 507.12808 329.7907 506.62134 329.3841 506.2135 328.88718C 505.77286 328.35226 505.4318 327.7426 505.2065 327.0872C 504.95956 326.37524 504.83447 325.62674 504.83652 324.8732L504.83652 324.8732L504.83652 288.8132C 504.83426 288.059 504.95935 287.30978 505.2065 286.5972C 505.43173 285.94177 505.77283 285.33212 506.2135 284.7972C 506.6217 284.30176 507.12842 283.8965 507.7015 283.6072C 508.26456 283.32513 508.88785 283.1844 509.51752 283.1972C 510.15097 283.21255 510.77158 283.3792 511.3275 283.6832C 511.89743 283.99634 512.3989 284.42032 512.8025 284.9302C 513.236 285.47574 513.57196 286.09216 513.7955 286.7522C 514.038 287.46405 514.1611 288.21115 514.1595 288.9632L514.1595 288.9632L514.1595 324.7232C 514.161 325.47525 514.038 326.22235 513.7955 326.9342C 513.572 327.59457 513.2361 328.21133 512.8025 328.7572C 512.3991 329.26782 511.89758 329.6925 511.32748 330.0062C 510.77142 330.3098 510.15085 330.4761 509.51752 330.49118z" stroke="none" fill="#3F3D56" fill-rule="nonzero" />
        <path transform="matrix(1 0 0 1 -275.16232 -137.72919)"  d="M337.34854 326.0882C 336.88272 326.095 336.41824 326.03677 335.96854 325.9152C 335.73947 325.8535 335.51492 325.77594 335.29654 325.6832C 335.07297 325.58807 334.85614 325.4778 334.64755 325.3532C 334.22977 325.10532 333.84702 324.80264 333.50955 324.45322C 333.17563 324.1056 332.88882 323.7156 332.65656 323.2932C 332.42087 322.8646 332.24106 322.40756 332.12155 321.93323C 331.9978 321.44287 331.93564 320.93896 331.93655 320.43323L331.93655 320.43323L331.93655 294.2672C 331.93567 293.76147 331.9978 293.25757 332.12155 292.7672C 332.24127 292.29358 332.42105 291.83722 332.65656 291.4092C 333.12375 290.55655 333.8118 289.84534 334.64856 289.35022C 335.06088 289.1016 335.50537 288.91083 335.96957 288.78323C 336.87384 288.53848 337.8286 288.55197 338.7256 288.82224C 339.18738 288.96164 339.62833 289.1624 340.0366 289.41922L340.0366 289.41922L360.93658 302.49323L361.0116 302.54123L361.0866 302.59024L361.1606 302.64023L361.2336 302.69122C 361.56912 302.9338 361.8755 303.21432 362.1466 303.52722C 362.41733 303.8389 362.65216 304.18005 362.84662 304.54422C 363.0428 304.9132 363.19806 305.30252 363.30963 305.70523C 363.4245 306.11923 363.4949 306.5443 363.51962 306.97324L363.51962 306.97324L363.51962 307.33823C 363.52048 307.8319 363.46136 308.32382 363.34363 308.80322C 363.22952 309.26666 363.0582 309.71408 362.83362 310.13522C 362.61237 310.55008 362.3388 310.93488 362.01962 311.2802C 361.69717 311.62695 361.33035 311.92957 360.92862 312.1802L360.92862 312.1802L340.03662 325.27722C 339.8299 325.40707 339.61475 325.523 339.3926 325.6242C 339.17587 325.7229 338.9527 325.80676 338.7246 325.8752C 338.50046 325.9425 338.2719 325.9943 338.04062 326.0302C 337.81155 326.0655 337.58032 326.08487 337.34854 326.0882z" stroke="none" fill="#CACACA" fill-rule="nonzero" />
	</g>
    <path transform="matrix(1 0 0 1 -275.16232 -137.72919)"  d="M652.06757 438.7282L416.18256 470.7352C 410.98737 471.4847 405.7426 469.74326 402.02756 466.0352C 400.13147 464.1496 398.6463 461.89188 397.66556 459.40417C 396.5857 456.6612 396.04025 453.73703 396.05856 450.78918C 396.078 444.71835 398.18604 438.83917 402.02856 434.1392C 403.81598 431.94 405.9866 430.0824 408.43558 428.6562C 410.80905 427.27216 413.44986 426.40903 416.1826 426.12418L416.1826 426.12418L652.06757 402.83017C 653.774 402.6588 655.49396 402.9765 657.02655 403.74615C 658.60944 404.5604 659.9839 405.72784 661.0436 407.15814C 662.2483 408.77203 663.1595 410.58536 663.7356 412.51514C 664.4003 414.71365 664.73206 416.99936 664.7196 419.29614C 664.72076 421.66763 664.3895 424.0276 663.7356 426.30713C 663.13586 428.42404 662.2289 430.44153 661.0436 432.29514C 659.98 433.97827 658.6188 435.45367 657.02655 436.64914C 655.5731 437.7454 653.8682 438.46017 652.06757 438.7282z" stroke="none" fill="#E4E4E4" fill-rule="nonzero" />
    <path transform="matrix(1 0 0 1 -275.16232 -137.72919)"  d="M614.97754 443.76022L416.18256 470.73422C 410.98737 471.48373 405.7426 469.74228 402.02756 466.0342C 400.13144 464.14862 398.64627 461.8909 397.66556 459.4032C 396.5862 456.66147 396.04077 453.73874 396.05856 450.7922C 396.059 449.28366 396.1905 447.77798 396.45157 446.2922C 397.2324 441.8277 399.1523 437.6403 402.02557 434.1352C 402.95755 432.99744 403.9897 431.94556 405.1096 430.9922C 406.1799 430.0788 407.33478 429.26947 408.5586 428.5752C 409.74054 427.90573 410.98724 427.3576 412.2796 426.9392C 413.54694 426.52963 414.85434 426.2564 416.1796 426.1242L416.1796 426.1242L614.9776 406.49222L614.97754 443.76022z" stroke="none" fill="#003153" fill-rule="nonzero" />
    <path transform="matrix(1 0 0 1 -275.16232 -137.72919)"  d="M337.26755 476.4202C 337.03784 476.4506 336.80627 476.46497 336.57455 476.4632C 336.3449 476.46164 336.11566 476.4436 335.88855 476.4092C 335.43054 476.3394 334.9854 476.20224 334.56754 476.0022C 333.73526 475.6059 333.04126 474.9687 332.57553 474.1732C 332.33777 473.76678 332.1577 473.32925 332.04053 472.8732C 331.91638 472.3921 331.85422 471.8971 331.85553 471.4002L331.85553 471.4002L331.85553 445.2302C 331.85553 444.71722 331.91766 444.20618 332.04053 443.7082C 332.41238 442.20764 333.30872 440.8896 334.56754 439.9922C 334.97626 439.69907 335.42004 439.4582 335.88855 439.27518C 336.33154 439.10248 336.79565 438.98984 337.26855 438.9402C 337.72772 438.8924 338.1913 438.9099 338.64557 438.9922C 339.1014 439.0755 339.54272 439.2247 339.95557 439.43518L339.95557 439.43518L360.85556 450.06818L360.93155 450.10718L361.00656 450.14816L361.08057 450.19016L361.15356 450.23315C 361.47055 450.42532 361.76276 450.6557 362.02356 450.91916C 362.28342 451.18182 362.51102 451.47455 362.70157 451.79117C 362.8962 452.11536 363.05356 452.46057 363.17056 452.82016C 363.29266 453.1961 363.37445 453.58395 363.41455 453.97717C 363.4199 454.02917 363.42456 454.08118 363.42856 454.13318C 363.43256 454.18518 363.4359 454.23785 363.43857 454.29117C 363.4386 454.34384 363.44058 454.39685 363.44458 454.45016C 363.44858 454.50375 363.44858 454.5576 363.44458 454.61118C 363.44455 455.11172 363.38547 455.6105 363.2686 456.09717C 363.03918 457.06442 362.58987 457.96576 361.9556 458.73117C 361.63092 459.11707 361.26166 459.46313 360.8556 459.76218L360.8556 459.76218L339.9556 475.29517C 339.74924 475.4486 339.53387 475.58954 339.3106 475.71716C 339.095 475.84058 338.8719 475.95047 338.6426 476.04617C 338.41992 476.1392 338.19144 476.21768 337.95862 476.28116C 337.73166 476.3429 337.50076 476.38934 337.26755 476.4202z" stroke="none" fill="#CACACA" fill-rule="nonzero" />
    <path transform="matrix(1 0 0 1 -275.16232 -137.72919)"  d="M613.5436 416.98935C 616.4891 416.56494 619.4713 417.467 621.6878 419.45285C 623.9043 421.4387 625.1273 424.3043 625.02783 427.27856L625.02783 427.27856L658.37744 440.11536L643.26794 450.9106L613.915 437.06555C 608.8175 436.55606 604.90674 432.31445 604.812 427.19247C 604.7172 422.07047 608.4684 417.6871 613.5435 416.98935L613.5435 416.98935L613.5436 416.98935z" stroke="none" fill="#FFB6B6" fill-rule="nonzero" />
    <path transform="matrix(1 0 0 1 -275.16232 -137.72919)"  d="M740.17206 410.68784L745.814 420.94556C 744.45074 427.45163 740.92694 433.30527 735.8155 437.55493C 727.1774 444.8401 682.0115 471.97293 682.0115 471.97293L682.0115 471.97293L624.9917 443.34763L634.96655 430.09262L679.7325 445.0951L704.9863 421.24783L740.17206 410.68784z" stroke="none" fill="#3F3D56" fill-rule="nonzero" />
    <path transform="matrix(0.98270684 -0.1851679 0.1851679 0.98270684 -385.41833 14.55667)"  d="M757.1811 570.43243L763.1811 570.43243L763.1811 762.43243L757.1811 762.43243z" stroke="none" fill="#CACACA" fill-rule="nonzero" />
    <path transform="matrix(-0.98270696 -0.18516769 0.18516769 -0.98270696 1003.9836 1314.597)"  d="M704.3904 570.43243L710.3904 570.43243L710.3904 762.43243L704.3904 762.43243z" stroke="none" fill="#CACACA" fill-rule="nonzero" />
    <path d="M410.0188 428.19742C 410.0188 420.1893 429.94214 413.69742 454.5188 413.69742C 479.09546 413.69742 499.0188 420.1893 499.0188 428.19742C 499.0188 436.20554 479.09546 442.69742 454.5188 442.69742C 429.94214 442.69742 410.0188 436.20554 410.0188 428.19742" stroke="none" fill="#CACACA" fill-rule="nonzero" />
    <path d="M360.004 611.715L347.744 611.714L341.912 564.426L360.006 564.427L360.004 611.715L360.004 611.715" stroke="none" fill="#FFB6B6" fill-rule="nonzero" />
    <path transform="matrix(1 0 0 1 -275.16232 -137.72919)"  d="M638.29254 761.3278L598.7618 761.32635L598.7618 760.82635C 598.7624 752.3289 605.6509 745.44055 614.14825 745.4401L614.14825 745.4401L614.14923 745.4401L638.2932 745.4411L638.29254 761.3278z" stroke="none" fill="#2F2E41" fill-rule="nonzero" />
    <path d="M419.518 547.373L408.809 553.342L380.689 514.878L396.494 506.068L419.518 547.373L419.518 547.373" stroke="none" fill="#FFB6B6" fill-rule="nonzero" />
    <path transform="matrix(1 0 0 1 -275.16232 -137.72919)"  d="M703.19745 693.9595L668.6688 713.20667L668.42535 712.76996C 664.28827 705.34766 666.95087 695.97687 674.3727 691.83887L674.3727 691.83887L674.37354 691.8384L695.4625 680.08295L703.19745 693.9595z" stroke="none" fill="#2F2E41" fill-rule="nonzero" />
    <path transform="matrix(1 0 0 1 -275.16232 -137.72919)"  d="M764.3136 530.4756C 764.3136 530.4756 770.2579 548.8928 733.78577 572.1842L733.78577 572.1842L686.8136 618.99L638.00696 735.7394L609.0312 722.7489L653.59076 603.8074L679.64825 558.1831L680.4042 533.42664L686.8136 515.97565L733.3136 499.47565L764.3136 530.4756z" stroke="none" fill="#2F2E41" fill-rule="nonzero" />
    <path transform="matrix(1 0 0 1 -275.16232 -137.72919)"  d="M668.9428 684.33673L620.4631 611.2454C 615.87115 604.308 616.8464 595.08813 622.7881 589.26495L622.7881 589.26495L671.8745 541.2493L680.19727 532.9266L698.82153 532.9266L690.0884 565.14777L659.7915 599.49054L694.8157 661.46857L668.9428 684.33673z" stroke="none" fill="#2F2E41" fill-rule="nonzero" />
    <path transform="matrix(1 0 0 1 -275.16232 -137.72919)"  d="M704.573 430.3326L719.18115 409.4266L752.55994 406.74124C 752.55994 406.74124 781.2553 433.77692 776.0345 469.37625C 770.81366 504.9756 765.81366 539.9756 765.81366 539.9756C 765.81366 539.9756 713.81366 502.9756 686.81366 515.9756L686.81366 515.9756L704.573 430.3326z" stroke="none" fill="#3F3D56" fill-rule="nonzero" />
    <path transform="matrix(1 0 0 1 -275.16232 -137.72919)"  d="M694.65576 539.3998C 695.1798 536.47034 696.97455 533.9235 699.55695 532.4446C 702.1394 530.96564 705.2443 530.7065 708.0362 531.73694L708.0362 531.73694L730.71564 504.12134L736.20764 521.86035L713.82886 545.365C 711.7411 550.0431 706.4843 552.4203 701.5928 550.8984C 696.70123 549.3765 693.721 544.4366 694.65576 539.3998z" stroke="none" fill="#FFB6B6" fill-rule="nonzero" />
    <path transform="matrix(1 0 0 1 -275.16232 -137.72919)"  d="M723.20746 537.6053L713.2187 523.17706L741.583 485.35822L726.9712 454.0472L728.0352 416.80307L740.1097 414.5726L740.2596 414.6478C 746.1298 418.02682 750.6675 423.31226 753.11896 429.6263C 756.13116 437.1566 762.8553 465.42514 766.5955 481.60483C 768.0894 487.98022 766.1697 494.67426 761.524 499.2889L761.524 499.2889L723.20746 537.6053z" stroke="none" fill="#3F3D56" fill-rule="nonzero" />
    <path transform="matrix(0.5109782 -0.8595937 0.8595937 0.5109782 -244.8233 674.31946)"  d="M751.90533 379.35965C 751.90533 385.72025 749.65656 391.14935 745.15894 395.64694C 740.6614 400.1446 735.23224 402.3934 728.87164 402.39337C 722.51105 402.3934 717.082 400.1446 712.58435 395.64694C 708.0868 391.14935 705.838 385.72025 705.83795 379.35965C 705.838 372.99908 708.0868 367.57 712.58435 363.07236C 717.082 358.57477 722.51105 356.32593 728.87164 356.32593C 735.23224 356.32593 740.6614 358.57477 745.15894 363.07236C 749.65656 367.57 751.90533 372.99908 751.90533 379.35965C 751.90533 379.6277 751.90063 379.89566 751.8913 380.1635" stroke="none" fill="#FFB6B6" fill-rule="nonzero" />
    <path transform="matrix(1 0 0 1 -275.16232 -137.72919)"  d="M743.5979 371.0893C 743.3544 374.43393 746.49133 386.76688 746.49133 386.76688C 748.79034 382.89938 745.17883 395.75235 745.17883 395.75235C 782.90924 369.45184 753.0967 343.02887 741.4348 345.37772C 741.6783 342.03305 732.1672 343.35806 732.1672 343.35806C 728.54315 337.7144 720.6005 345.20587 720.6005 345.20587L720.6005 345.20587L722.1332 342.62753C 715.9667 344.196 709.8719 363.25412 709.8719 363.25412C 711.96326 371.47607 743.84143 367.74463 743.5979 371.0893z" stroke="none" fill="#2F2E41" fill-rule="nonzero" />
    <path transform="matrix(1 0 0 1 -275.16232 -137.72919)"  d="M614.0935 446.2622C 613.5876 446.33478 613.0714 446.26556 612.6025 446.0622C 612.1268 445.84903 611.7084 445.5262 611.3815 445.1202C 611.0117 444.66534 610.73016 444.14545 610.55145 443.58722C 610.3475 442.94962 610.2462 442.28363 610.25146 441.61423L610.25146 441.61423L610.25146 408.95123C 610.2498 408.25882 610.35095 407.56998 610.55145 406.90723C 610.7375 406.29254 611.01746 405.71033 611.3815 405.1812C 611.70825 404.69925 612.1228 404.28302 612.60345 403.95422C 613.047 403.65054 613.55896 403.46188 614.09344 403.4052C 614.60345 403.35522 615.1175 403.4462 615.57947 403.6682C 616.0532 403.9012 616.4677 404.2391 616.79144 404.65622C 617.15454 405.12137 617.43097 405.64813 617.6074 406.2112C 617.80945 406.8479 617.91064 407.51224 617.9074 408.1802L617.9074 408.1802L617.9074 440.5962C 617.90717 441.28683 617.8061 441.97375 617.6074 442.6352C 617.424 443.2546 617.149 443.8431 616.79144 444.3812C 616.46716 444.87402 616.0566 445.30426 615.57947 445.65118C 615.1407 445.97174 614.63086 446.1814 614.0935 446.2622z" stroke="none" fill="#3F3D56" fill-rule="nonzero" />
    <path transform="matrix(1 0 0 1 -275.16232 -137.72919)"  d="M923.647 762.2708L276.353 762.2708C 275.6978 762.2674 275.1685 761.7353 275.1685 761.08014C 275.1685 760.425 275.6978 759.8929 276.353 759.88947L276.353 759.88947L923.647 759.88947C 924.30304 759.8916 924.8338 760.424 924.8338 761.08014C 924.8338 761.73627 924.30304 762.2687 923.647 762.2708z" stroke="none" fill="#CACACA" fill-rule="nonzero" />
</g>
</svg>